<mxfile host="Electron" modified="2023-12-29T21:20:15.578Z" agent="Mozilla/5.0 (Windows NT 10.0; Win64; x64) AppleWebKit/537.36 (KHTML, like Gecko) draw.io/22.1.16 Chrome/120.0.6099.109 Electron/28.1.0 Safari/537.36" etag="-bSuUut11rP4Lsym3v4K" version="22.1.16" type="device">
  <diagram id="_DRUn5a--Bsbf812iT7-" name="Page-1">
    <mxGraphModel dx="1322" dy="688" grid="0" gridSize="10" guides="1" tooltips="1" connect="1" arrows="1" fold="1" page="1" pageScale="1" pageWidth="1169" pageHeight="1654" background="#4D5766" math="0" shadow="1">
      <root>
        <mxCell id="0" />
        <mxCell id="1" parent="0" />
        <mxCell id="9zTi3nsKfj2Z9hqAuiEz-359" value="" style="rounded=0;whiteSpace=wrap;html=1;" parent="1" vertex="1">
          <mxGeometry x="273" y="283.72999999999996" width="60" height="111" as="geometry" />
        </mxCell>
        <mxCell id="9zTi3nsKfj2Z9hqAuiEz-343" value="" style="rounded=0;whiteSpace=wrap;html=1;" parent="1" vertex="1">
          <mxGeometry x="20" y="283.5" width="60" height="111" as="geometry" />
        </mxCell>
        <mxCell id="79" style="edgeStyle=none;rounded=0;orthogonalLoop=1;jettySize=auto;html=1;entryX=0;entryY=0.5;entryDx=0;entryDy=0;endArrow=none;endFill=0;strokeColor=#98A2AE;startArrow=blockThin;startFill=1;fontSize=5;fontFamily=Manrope;fontSource=https%3A%2F%2Ffonts.googleapis.com%2Fcss%3Ffamily%3DManrope;labelBackgroundColor=#4D5766;fontColor=#FFFFFF;endSize=0;startSize=0;strokeWidth=2;" parent="1" source="9zTi3nsKfj2Z9hqAuiEz-363" target="54" edge="1">
          <mxGeometry relative="1" as="geometry">
            <mxPoint x="245" y="248" as="sourcePoint" />
          </mxGeometry>
        </mxCell>
        <mxCell id="93" value="" style="edgeStyle=none;rounded=0;orthogonalLoop=1;jettySize=auto;html=1;exitX=1.031;exitY=0.321;exitDx=0;exitDy=0;entryX=0;entryY=1;entryDx=0;entryDy=0;endArrow=blockThin;endFill=1;strokeColor=#98A2AE;fontSize=5;fontFamily=Manrope;fontSource=https%3A%2F%2Ffonts.googleapis.com%2Fcss%3Ffamily%3DManrope;labelBackgroundColor=#4D5766;fontColor=#FFFFFF;endSize=0;startSize=0;strokeWidth=2;exitPerimeter=0;" parent="1" source="47" target="92" edge="1">
          <mxGeometry relative="1" as="geometry">
            <mxPoint x="97.99999999997135" y="317.43" as="sourcePoint" />
            <mxPoint x="157.49999999991246" y="317.43" as="targetPoint" />
          </mxGeometry>
        </mxCell>
        <mxCell id="51" value="" style="shape=image;verticalLabelPosition=bottom;labelBackgroundColor=default;verticalAlign=top;aspect=fixed;imageAspect=0;image=data:image/png,iVBORw0KGgoAAAANSUhEUgAAAFgAAABYCAYAAABxlTA0AAAAAXNSR0IArs4c6QAAAARnQU1BAACxjwv8YQUAAAAJcEhZcwAAFxEAABcRAcom8z8AAAikSURBVHhe7ZwJbBRVGMe3pUBrASkUlVMpV6EUQSlCCqhEjbYiIQEUETFyVEAr3hDwquCFVE2EYoTWCBTk8KgmiBfGqDEoRbkE5JByWW9UtJTC5/d/MwPD8na7OzOvu4vvS35pd3bezPS337735r039flSskijiKZZf2nBKtGCFaMFK0YLVowWrBgtWDFasGK0YMVowYrRghUTlYIbX8IX1lv+XqwRVYKb9SFfYiYlpPYlX1IP+T6xRtQIhlxfF2rf4wbasHE7jc57lF+nyfeVgYyPS+cyncWHJI4n26+uiQrBpty0jFzavfcAIU6cOEE33jY1NMnnXkoJLfrSkFH308hx0ykzeyT5knvK961rIi7YytxuOSz3oJBrxQlm+JiHapfcqCc1aXcFVR2tFuUK5y7hMh3l+9Y1ERV8WuaeLtcKSB5Rm2QW3Ljt5VT582+izKw5xbx/J/m+dU3EBFtyOXP3VBwSYhBHzSw8Wm38tCKoZC3YjwDVwosvv04LFr0tft+6fQ/d9eBs8TsCdXLA6kILtgG5cWa1UHFK7qLlq1lKGyoqXiVe7913iHz1utJtEx8TrxGoLqQNnxZsg7tQPfuNoH0HK4UMxOIV75GvQQZLuYhKSt8V2yr2/0gNL8jmbe1ofP5Msc2K2yc/Tr6G3U8dUwu2kdCVcoffLUQgFiNzIfeci1lKOhUveUdsh+DElv2N7hZnrF3yHPQSErrxxZt3e1qwDVH/duL+6gx6lbPVl8RiIdesl88Q3KiXIdLXge6Z/jy9ULRUVB3o+548phYsoSHfbTXgrznGHSAX2wIJxnuQjP2R7Xa5QAuW0BT4DegEEyzK8P7+ZYAWHCK1CQ6EFhwiWrBiIi0YjafV4Mred4IWbMLnzhkxhdp1v150JT2T/L8XzI1mHN/8jJ1cIMpu2rqTUtsMNLLZC8laMAvmu8LSVe+LsojyjdupuVeSdRXBNO5F8Uk9xC27FetZsshkt9WFFsxAIBo3vomxSy7fZEp2k8lasEkzBrftfLfon8muqgvHgnGyZL4gliImGj3h/JPDlW4Ez5hZxMdK9Tt2qFzItKEX5y+j48ePi+OJ6qKtQ8mOBfMnnX3tOCopfYezrswTFrLcHbsqxB/lRvD6b7fR3KKl4sMKm5I36CUuO2/hSvrn3ypxPAQavgsuGmRUJbJrCIRjwb6ONPn+Z8zTex8/saxwBDdhwX/+fcQsrSY+W7eREs7pceZgUzAcC45Pp+FjptL+A5Ui27xkHx/zy683GQPu3MJLz2+H90luPZDLbKadu/fR9/wtcAyX37FzL33DDVx19TFTLdERzubcYfkUl5QJafLrkOFYMPcf66VeRkmt+otM85IkRsiVnTcI9VL7ivURWBnkCC5bD3UsN5AYe64+Zgg+8k8VDcrN4+0dpOcNimPB4NzexldYBRgnlp0zGE24DMo5AWXF7MmFNOm+p4VYBORemTPemVzgSvDZBOpVXxrlP/ScqZZEIzcod4JzuUCJ4EAD49EKrpUl2uUa1YJLucBzwWgAMOPrPx0UrWAsIjGTpj8xz1RrNGhX5nggF3gqWGRCGk3i7hsWkPgSuUuDuk22b7RgCn7ltbeEXKNaMBs03N3JyoSDZ4JNuWPueFRcKGLB4jKKwyQl3pOViRaQBPytw6LBwSPv9SZzLTwRbModnfewqdaIcXcWGNVFOP3GSIBMbcKNHG6Fcb1eVmuuBZtyb817xNRqRMhre6MJFd80V4ItubZqARGTclXhWLAkc7H0dOjN9/H2tkanvZEb+GZDdt5giJsU2bE8wGl2OxJsyrU3aFVV1TQ2f6aYfsHIlluSMQYrO3cA4rgebcRlZMfyAtxKO5IctmA+CaZX8qbMMtUagYGRXXv2U+VPv4phQ7fgQRgxHhFKJnOGQe6Wbbulx/KCy9F1QyMoO38wwhbMNw+JKb1py/Y9plo1gQ8KAz+hCkaW/XH4L7O09zH4JnTfusjPHwxHVQRncOsOV9Fmzhgr0EF/oaiUZheWUCH/LJzngMJXafN3u8TxMGwZrmBkGgID7oW4Dtk5HNIla5izZ/ccCUY/MT6dWrYfRJtMIZhewSyAaOAEnZiOYdKC5hW7nzKaNaeEj9Xc79guQUPnpH/sSDAwJWMaxZKMWFH2EdfRmcanHe4FeTTpiYwLe9JTFY4FA0syZ7K9ulhZ9rEx8h+uZC1YgpDcVZrJDTDdE8qUj4UWHAB7dbHtlOQlK9dQXH3bsxS1oQUHwZSMhg9T7zU1x+n6YfnGg9my/WVowbUAydwZb99ziFgzIRZy6DrYQ8EAQtG41c8ITy7QghWjBStGC1ZMqIIxxW7vmYQi2L9MXRFTglGn4zWWmWJC1RIWTDDKYGwahNOj8YqYEoyV6Cxq+Zsf0LSCubx/B3N1UQDBkNsgg5LP60erP/yCRk14mLeH2bNxS8wIxjh0w+60jOVacecDz3KZNLGk9EzBLBJyWebaz9aL7Yhrhk42HiT3P7cqYkkw1i9MvOcp8b4VhuR2lNx6wEnBz+OBcV9rSm7ehz75vFxsQ2CNb1rX68Jf4+uGmKoiMP3vNw+ImDBllni4/FDlL+J1wewFFJ/YidZ+fipz123YSs1a8fGQvbqKCCAYoGFjybdwfWqPaQUv0e4fjH8JNr9kFa0oWyt+R6wr30opLbPrXi6IOcHAlDzaT3JNTY34if/vY8VXG76LnFwQrYKxyj2gYBBAsj2MzI1AtWAnugR3ptJVa4ScX38/HFwwsKqL8WdKRp0b0cy1iCrBLDOj3410NXelBuSMp/jmlxkSZftamJLtDd+68i2UEokGTUZUCYYM3G3FpxtyQl00aEqeMOVJ+vSLDZSCRSvRIBdElWA3QDKGSTHm4GTCVRVnjWAAyViGKnsvUpxVgqMRLVgxWrBitGDFaMGK0YIVowUrRgtWjBasGC1YMU2zjviEZY0isn78D43o8OjRWGtOAAAAAElFTkSuQmCC;" parent="1" vertex="1">
          <mxGeometry x="280" y="312.65" width="50" height="50" as="geometry" />
        </mxCell>
        <mxCell id="52" value="2" style="ellipse;whiteSpace=wrap;html=1;aspect=fixed;fontColor=#FFFFFF;fontSize=8;strokeColor=#98A2AE;fontFamily=Manrope;fontSource=https://fonts.googleapis.com/css?family=Manrope;fillColor=#BEC8D2;strokeWidth=1;" parent="1" vertex="1">
          <mxGeometry x="280" y="393.73" width="10" height="10" as="geometry" />
        </mxCell>
        <mxCell id="54" value="1" style="ellipse;whiteSpace=wrap;html=1;aspect=fixed;fontColor=#FFFFFF;fontSize=8;strokeColor=#98A2AE;fontFamily=Manrope;fontSource=https://fonts.googleapis.com/css?family=Manrope;fillColor=#BEC8D2;strokeWidth=1;" parent="1" vertex="1">
          <mxGeometry x="278" y="273" width="10" height="10" as="geometry" />
        </mxCell>
        <mxCell id="202" style="edgeStyle=none;rounded=0;orthogonalLoop=1;jettySize=auto;html=1;entryX=0.5;entryY=1;entryDx=0;entryDy=0;endArrow=none;endFill=0;strokeColor=#98A2AE;startArrow=blockThin;startFill=1;fontSize=5;fontFamily=Manrope;fontSource=https%3A%2F%2Ffonts.googleapis.com%2Fcss%3Ffamily%3DManrope;labelBackgroundColor=#4D5766;fontColor=#FFFFFF;endSize=0;startSize=0;strokeWidth=2;exitX=0.5;exitY=0;exitDx=0;exitDy=0;" parent="1" source="205" target="9zTi3nsKfj2Z9hqAuiEz-296" edge="1">
          <mxGeometry relative="1" as="geometry">
            <mxPoint x="176" y="383" as="sourcePoint" />
          </mxGeometry>
        </mxCell>
        <mxCell id="203" value="&lt;font style=&quot;font-size: 8px;&quot;&gt;P4&lt;br&gt;4.4.4.4&lt;/font&gt;" style="text;html=1;align=center;verticalAlign=middle;resizable=0;points=[];autosize=1;fontSize=14;fontFamily=Manrope;fontStyle=0;fontColor=#FFFFFF;" parent="1" vertex="1">
          <mxGeometry x="150" y="471.5" width="40" height="46" as="geometry" />
        </mxCell>
        <mxCell id="204" value="&lt;font style=&quot;font-size: 8px;&quot;&gt;P3&lt;br&gt;10.0.0.3&lt;/font&gt;" style="text;html=1;align=center;verticalAlign=middle;resizable=0;points=[];autosize=1;fontSize=14;fontFamily=Manrope;fontStyle=0;fontColor=#FFFFFF;" parent="1" vertex="1">
          <mxGeometry x="150" y="168" width="44" height="46" as="geometry" />
        </mxCell>
        <mxCell id="205" value="" style="ellipse;whiteSpace=wrap;html=1;aspect=fixed;fontColor=#FFFFFF;fontSize=6;fontFamily=Manrope;fontSource=https%3A%2F%2Ffonts.googleapis.com%2Fcss%3Ffamily%3DManrope;fillColor=#BEC8D2;strokeColor=none;" parent="1" vertex="1">
          <mxGeometry x="173" y="342" width="4" height="4" as="geometry" />
        </mxCell>
        <mxCell id="206" value="" style="edgeStyle=none;rounded=0;orthogonalLoop=1;jettySize=auto;html=1;exitX=0.5;exitY=0;exitDx=0;exitDy=0;endArrow=blockThin;endFill=1;strokeColor=#98A2AE;fontSize=5;fontFamily=Manrope;fontSource=https%3A%2F%2Ffonts.googleapis.com%2Fcss%3Ffamily%3DManrope;labelBackgroundColor=#4D5766;fontColor=#FFFFFF;endSize=0;startSize=0;strokeWidth=2;entryX=0.5;entryY=1;entryDx=0;entryDy=0;" parent="1" source="9zTi3nsKfj2Z9hqAuiEz-298" target="205" edge="1">
          <mxGeometry relative="1" as="geometry">
            <mxPoint x="168" y="518" as="sourcePoint" />
            <mxPoint x="172" y="388" as="targetPoint" />
          </mxGeometry>
        </mxCell>
        <mxCell id="207" value="" style="shape=image;verticalLabelPosition=bottom;labelBackgroundColor=default;verticalAlign=top;aspect=fixed;imageAspect=0;image=data:image/png,iVBORw0KGgoAAAANSUhEUgAAAFgAAABYCAYAAABxlTA0AAAAAXNSR0IArs4c6QAAAARnQU1BAACxjwv8YQUAAAAJcEhZcwAAFxEAABcRAcom8z8AAAikSURBVHhe7ZwJbBRVGMe3pUBrASkUlVMpV6EUQSlCCqhEjbYiIQEUETFyVEAr3hDwquCFVE2EYoTWCBTk8KgmiBfGqDEoRbkE5JByWW9UtJTC5/d/MwPD8na7OzOvu4vvS35pd3bezPS337735r039flSskijiKZZf2nBKtGCFaMFK0YLVowWrBgtWDFasGK0YMVowYrRghUTlYIbX8IX1lv+XqwRVYKb9SFfYiYlpPYlX1IP+T6xRtQIhlxfF2rf4wbasHE7jc57lF+nyfeVgYyPS+cyncWHJI4n26+uiQrBpty0jFzavfcAIU6cOEE33jY1NMnnXkoJLfrSkFH308hx0ykzeyT5knvK961rIi7YytxuOSz3oJBrxQlm+JiHapfcqCc1aXcFVR2tFuUK5y7hMh3l+9Y1ERV8WuaeLtcKSB5Rm2QW3Ljt5VT582+izKw5xbx/J/m+dU3EBFtyOXP3VBwSYhBHzSw8Wm38tCKoZC3YjwDVwosvv04LFr0tft+6fQ/d9eBs8TsCdXLA6kILtgG5cWa1UHFK7qLlq1lKGyoqXiVe7913iHz1utJtEx8TrxGoLqQNnxZsg7tQPfuNoH0HK4UMxOIV75GvQQZLuYhKSt8V2yr2/0gNL8jmbe1ofP5Msc2K2yc/Tr6G3U8dUwu2kdCVcoffLUQgFiNzIfeci1lKOhUveUdsh+DElv2N7hZnrF3yHPQSErrxxZt3e1qwDVH/duL+6gx6lbPVl8RiIdesl88Q3KiXIdLXge6Z/jy9ULRUVB3o+548phYsoSHfbTXgrznGHSAX2wIJxnuQjP2R7Xa5QAuW0BT4DegEEyzK8P7+ZYAWHCK1CQ6EFhwiWrBiIi0YjafV4Mred4IWbMLnzhkxhdp1v150JT2T/L8XzI1mHN/8jJ1cIMpu2rqTUtsMNLLZC8laMAvmu8LSVe+LsojyjdupuVeSdRXBNO5F8Uk9xC27FetZsshkt9WFFsxAIBo3vomxSy7fZEp2k8lasEkzBrftfLfon8muqgvHgnGyZL4gliImGj3h/JPDlW4Ez5hZxMdK9Tt2qFzItKEX5y+j48ePi+OJ6qKtQ8mOBfMnnX3tOCopfYezrswTFrLcHbsqxB/lRvD6b7fR3KKl4sMKm5I36CUuO2/hSvrn3ypxPAQavgsuGmRUJbJrCIRjwb6ONPn+Z8zTex8/saxwBDdhwX/+fcQsrSY+W7eREs7pceZgUzAcC45Pp+FjptL+A5Ui27xkHx/zy683GQPu3MJLz2+H90luPZDLbKadu/fR9/wtcAyX37FzL33DDVx19TFTLdERzubcYfkUl5QJafLrkOFYMPcf66VeRkmt+otM85IkRsiVnTcI9VL7ivURWBnkCC5bD3UsN5AYe64+Zgg+8k8VDcrN4+0dpOcNimPB4NzexldYBRgnlp0zGE24DMo5AWXF7MmFNOm+p4VYBORemTPemVzgSvDZBOpVXxrlP/ScqZZEIzcod4JzuUCJ4EAD49EKrpUl2uUa1YJLucBzwWgAMOPrPx0UrWAsIjGTpj8xz1RrNGhX5nggF3gqWGRCGk3i7hsWkPgSuUuDuk22b7RgCn7ltbeEXKNaMBs03N3JyoSDZ4JNuWPueFRcKGLB4jKKwyQl3pOViRaQBPytw6LBwSPv9SZzLTwRbModnfewqdaIcXcWGNVFOP3GSIBMbcKNHG6Fcb1eVmuuBZtyb817xNRqRMhre6MJFd80V4ItubZqARGTclXhWLAkc7H0dOjN9/H2tkanvZEb+GZDdt5giJsU2bE8wGl2OxJsyrU3aFVV1TQ2f6aYfsHIlluSMQYrO3cA4rgebcRlZMfyAtxKO5IctmA+CaZX8qbMMtUagYGRXXv2U+VPv4phQ7fgQRgxHhFKJnOGQe6Wbbulx/KCy9F1QyMoO38wwhbMNw+JKb1py/Y9plo1gQ8KAz+hCkaW/XH4L7O09zH4JnTfusjPHwxHVQRncOsOV9Fmzhgr0EF/oaiUZheWUCH/LJzngMJXafN3u8TxMGwZrmBkGgID7oW4Dtk5HNIla5izZ/ccCUY/MT6dWrYfRJtMIZhewSyAaOAEnZiOYdKC5hW7nzKaNaeEj9Xc79guQUPnpH/sSDAwJWMaxZKMWFH2EdfRmcanHe4FeTTpiYwLe9JTFY4FA0syZ7K9ulhZ9rEx8h+uZC1YgpDcVZrJDTDdE8qUj4UWHAB7dbHtlOQlK9dQXH3bsxS1oQUHwZSMhg9T7zU1x+n6YfnGg9my/WVowbUAydwZb99ziFgzIRZy6DrYQ8EAQtG41c8ITy7QghWjBStGC1ZMqIIxxW7vmYQi2L9MXRFTglGn4zWWmWJC1RIWTDDKYGwahNOj8YqYEoyV6Cxq+Zsf0LSCubx/B3N1UQDBkNsgg5LP60erP/yCRk14mLeH2bNxS8wIxjh0w+60jOVacecDz3KZNLGk9EzBLBJyWebaz9aL7Yhrhk42HiT3P7cqYkkw1i9MvOcp8b4VhuR2lNx6wEnBz+OBcV9rSm7ehz75vFxsQ2CNb1rX68Jf4+uGmKoiMP3vNw+ImDBllni4/FDlL+J1wewFFJ/YidZ+fipz123YSs1a8fGQvbqKCCAYoGFjybdwfWqPaQUv0e4fjH8JNr9kFa0oWyt+R6wr30opLbPrXi6IOcHAlDzaT3JNTY34if/vY8VXG76LnFwQrYKxyj2gYBBAsj2MzI1AtWAnugR3ptJVa4ScX38/HFwwsKqL8WdKRp0b0cy1iCrBLDOj3410NXelBuSMp/jmlxkSZftamJLtDd+68i2UEokGTUZUCYYM3G3FpxtyQl00aEqeMOVJ+vSLDZSCRSvRIBdElWA3QDKGSTHm4GTCVRVnjWAAyViGKnsvUpxVgqMRLVgxWrBitGDFaMGK0YIVowUrRgtWjBasGC1YMU2zjviEZY0isn78D43o8OjRWGtOAAAAAElFTkSuQmCC;" parent="1" vertex="1">
          <mxGeometry x="150" y="214" width="50" height="50" as="geometry" />
        </mxCell>
        <mxCell id="208" value="2" style="ellipse;whiteSpace=wrap;html=1;aspect=fixed;fontColor=#FFFFFF;fontSize=8;strokeColor=#98A2AE;fontFamily=Manrope;fontSource=https://fonts.googleapis.com/css?family=Manrope;fillColor=#BEC8D2;strokeWidth=1;" parent="1" vertex="1">
          <mxGeometry x="140" y="241.5" width="10" height="10" as="geometry" />
        </mxCell>
        <mxCell id="209" value="3" style="ellipse;whiteSpace=wrap;html=1;aspect=fixed;fontColor=#FFFFFF;fontSize=8;strokeColor=#98A2AE;fontFamily=Manrope;fontSource=https://fonts.googleapis.com/css?family=Manrope;fillColor=#BEC8D2;strokeWidth=1;" parent="1" vertex="1">
          <mxGeometry x="200" y="241.5" width="10" height="10" as="geometry" />
        </mxCell>
        <mxCell id="218" value="&lt;font style=&quot;font-size: 8px;&quot;&gt;1.1.1.1&lt;/font&gt;" style="text;html=1;align=center;verticalAlign=middle;resizable=0;points=[];autosize=1;fontSize=14;fontFamily=Manrope;fontStyle=0;fontColor=#FFFFFF;" parent="1" vertex="1">
          <mxGeometry x="38" y="362" width="40" height="29" as="geometry" />
        </mxCell>
        <mxCell id="219" value="&lt;font style=&quot;font-size: 8px;&quot;&gt;PE2&lt;br&gt;10.0.0.2&lt;/font&gt;" style="text;html=1;align=center;verticalAlign=middle;resizable=0;points=[];autosize=1;fontSize=14;fontFamily=Manrope;fontStyle=0;fontColor=#FFFFFF;" parent="1" vertex="1">
          <mxGeometry x="293" y="236.73" width="44" height="46" as="geometry" />
        </mxCell>
        <mxCell id="223" value="" style="edgeStyle=none;rounded=0;orthogonalLoop=1;jettySize=auto;html=1;entryX=1;entryY=1;entryDx=0;entryDy=0;endArrow=blockThin;endFill=1;strokeColor=#98A2AE;fontSize=5;fontFamily=Manrope;fontSource=https%3A%2F%2Ffonts.googleapis.com%2Fcss%3Ffamily%3DManrope;labelBackgroundColor=#4D5766;fontColor=#FFFFFF;endSize=0;startSize=0;strokeWidth=2;exitX=0;exitY=0.5;exitDx=0;exitDy=0;" parent="1" source="200" target="220" edge="1">
          <mxGeometry relative="1" as="geometry">
            <mxPoint x="145" y="444" as="sourcePoint" />
            <mxPoint x="109.4142135623731" y="421.414213562373" as="targetPoint" />
          </mxGeometry>
        </mxCell>
        <mxCell id="225" value="" style="edgeStyle=none;rounded=0;orthogonalLoop=1;jettySize=auto;html=1;exitX=0;exitY=1;exitDx=0;exitDy=0;endArrow=blockThin;endFill=1;strokeColor=#98A2AE;fontSize=5;fontFamily=Manrope;fontSource=https%3A%2F%2Ffonts.googleapis.com%2Fcss%3Ffamily%3DManrope;labelBackgroundColor=#4D5766;fontColor=#FFFFFF;endSize=0;startSize=0;strokeWidth=2;entryX=1;entryY=0.5;entryDx=0;entryDy=0;" parent="1" source="52" target="224" edge="1">
          <mxGeometry relative="1" as="geometry">
            <mxPoint x="369" y="446" as="sourcePoint" />
            <mxPoint x="239.00000000000068" y="424.5" as="targetPoint" />
          </mxGeometry>
        </mxCell>
        <mxCell id="226" value="" style="edgeStyle=none;rounded=0;orthogonalLoop=1;jettySize=auto;html=1;endArrow=blockThin;endFill=1;strokeColor=#98A2AE;fontSize=5;fontFamily=Manrope;fontSource=https%3A%2F%2Ffonts.googleapis.com%2Fcss%3Ffamily%3DManrope;labelBackgroundColor=#4D5766;fontColor=#FFFFFF;endSize=0;startSize=0;strokeWidth=2;exitX=1;exitY=0.5;exitDx=0;exitDy=0;entryX=0;entryY=0.5;entryDx=0;entryDy=0;" parent="1" source="209" target="9zTi3nsKfj2Z9hqAuiEz-363" edge="1">
          <mxGeometry relative="1" as="geometry">
            <mxPoint x="237" y="329.73" as="sourcePoint" />
            <mxPoint x="213" y="303.73" as="targetPoint" />
          </mxGeometry>
        </mxCell>
        <mxCell id="9zTi3nsKfj2Z9hqAuiEz-296" value="1" style="ellipse;whiteSpace=wrap;html=1;aspect=fixed;fontColor=#FFFFFF;fontSize=8;strokeColor=#98A2AE;fontFamily=Manrope;fontSource=https://fonts.googleapis.com/css?family=Manrope;fillColor=#BEC8D2;strokeWidth=1;" parent="1" vertex="1">
          <mxGeometry x="170" y="264" width="10" height="10" as="geometry" />
        </mxCell>
        <mxCell id="9zTi3nsKfj2Z9hqAuiEz-298" value="1" style="ellipse;whiteSpace=wrap;html=1;aspect=fixed;fontColor=#FFFFFF;fontSize=8;strokeColor=#98A2AE;fontFamily=Manrope;fontSource=https://fonts.googleapis.com/css?family=Manrope;fillColor=#BEC8D2;strokeWidth=1;" parent="1" vertex="1">
          <mxGeometry x="170" y="414.5" width="10" height="10" as="geometry" />
        </mxCell>
        <mxCell id="199" value="3" style="ellipse;whiteSpace=wrap;html=1;aspect=fixed;fontColor=#FFFFFF;fontSize=8;strokeColor=#98A2AE;fontFamily=Manrope;fontSource=https://fonts.googleapis.com/css?family=Manrope;fillColor=#BEC8D2;strokeWidth=1;" parent="1" vertex="1">
          <mxGeometry x="200" y="442.5" width="10" height="10" as="geometry" />
        </mxCell>
        <mxCell id="198" value="" style="shape=image;verticalLabelPosition=bottom;labelBackgroundColor=default;verticalAlign=top;aspect=fixed;imageAspect=0;image=data:image/png,iVBORw0KGgoAAAANSUhEUgAAAFgAAABYCAYAAABxlTA0AAAAAXNSR0IArs4c6QAAAARnQU1BAACxjwv8YQUAAAAJcEhZcwAAFxEAABcRAcom8z8AAAikSURBVHhe7ZwJbBRVGMe3pUBrASkUlVMpV6EUQSlCCqhEjbYiIQEUETFyVEAr3hDwquCFVE2EYoTWCBTk8KgmiBfGqDEoRbkE5JByWW9UtJTC5/d/MwPD8na7OzOvu4vvS35pd3bezPS337735r039flSskijiKZZf2nBKtGCFaMFK0YLVowWrBgtWDFasGK0YMVowYrRghUTlYIbX8IX1lv+XqwRVYKb9SFfYiYlpPYlX1IP+T6xRtQIhlxfF2rf4wbasHE7jc57lF+nyfeVgYyPS+cyncWHJI4n26+uiQrBpty0jFzavfcAIU6cOEE33jY1NMnnXkoJLfrSkFH308hx0ykzeyT5knvK961rIi7YytxuOSz3oJBrxQlm+JiHapfcqCc1aXcFVR2tFuUK5y7hMh3l+9Y1ERV8WuaeLtcKSB5Rm2QW3Ljt5VT582+izKw5xbx/J/m+dU3EBFtyOXP3VBwSYhBHzSw8Wm38tCKoZC3YjwDVwosvv04LFr0tft+6fQ/d9eBs8TsCdXLA6kILtgG5cWa1UHFK7qLlq1lKGyoqXiVe7913iHz1utJtEx8TrxGoLqQNnxZsg7tQPfuNoH0HK4UMxOIV75GvQQZLuYhKSt8V2yr2/0gNL8jmbe1ofP5Msc2K2yc/Tr6G3U8dUwu2kdCVcoffLUQgFiNzIfeci1lKOhUveUdsh+DElv2N7hZnrF3yHPQSErrxxZt3e1qwDVH/duL+6gx6lbPVl8RiIdesl88Q3KiXIdLXge6Z/jy9ULRUVB3o+548phYsoSHfbTXgrznGHSAX2wIJxnuQjP2R7Xa5QAuW0BT4DegEEyzK8P7+ZYAWHCK1CQ6EFhwiWrBiIi0YjafV4Mred4IWbMLnzhkxhdp1v150JT2T/L8XzI1mHN/8jJ1cIMpu2rqTUtsMNLLZC8laMAvmu8LSVe+LsojyjdupuVeSdRXBNO5F8Uk9xC27FetZsshkt9WFFsxAIBo3vomxSy7fZEp2k8lasEkzBrftfLfon8muqgvHgnGyZL4gliImGj3h/JPDlW4Ez5hZxMdK9Tt2qFzItKEX5y+j48ePi+OJ6qKtQ8mOBfMnnX3tOCopfYezrswTFrLcHbsqxB/lRvD6b7fR3KKl4sMKm5I36CUuO2/hSvrn3ypxPAQavgsuGmRUJbJrCIRjwb6ONPn+Z8zTex8/saxwBDdhwX/+fcQsrSY+W7eREs7pceZgUzAcC45Pp+FjptL+A5Ui27xkHx/zy683GQPu3MJLz2+H90luPZDLbKadu/fR9/wtcAyX37FzL33DDVx19TFTLdERzubcYfkUl5QJafLrkOFYMPcf66VeRkmt+otM85IkRsiVnTcI9VL7ivURWBnkCC5bD3UsN5AYe64+Zgg+8k8VDcrN4+0dpOcNimPB4NzexldYBRgnlp0zGE24DMo5AWXF7MmFNOm+p4VYBORemTPemVzgSvDZBOpVXxrlP/ScqZZEIzcod4JzuUCJ4EAD49EKrpUl2uUa1YJLucBzwWgAMOPrPx0UrWAsIjGTpj8xz1RrNGhX5nggF3gqWGRCGk3i7hsWkPgSuUuDuk22b7RgCn7ltbeEXKNaMBs03N3JyoSDZ4JNuWPueFRcKGLB4jKKwyQl3pOViRaQBPytw6LBwSPv9SZzLTwRbModnfewqdaIcXcWGNVFOP3GSIBMbcKNHG6Fcb1eVmuuBZtyb817xNRqRMhre6MJFd80V4ItubZqARGTclXhWLAkc7H0dOjN9/H2tkanvZEb+GZDdt5giJsU2bE8wGl2OxJsyrU3aFVV1TQ2f6aYfsHIlluSMQYrO3cA4rgebcRlZMfyAtxKO5IctmA+CaZX8qbMMtUagYGRXXv2U+VPv4phQ7fgQRgxHhFKJnOGQe6Wbbulx/KCy9F1QyMoO38wwhbMNw+JKb1py/Y9plo1gQ8KAz+hCkaW/XH4L7O09zH4JnTfusjPHwxHVQRncOsOV9Fmzhgr0EF/oaiUZheWUCH/LJzngMJXafN3u8TxMGwZrmBkGgID7oW4Dtk5HNIla5izZ/ccCUY/MT6dWrYfRJtMIZhewSyAaOAEnZiOYdKC5hW7nzKaNaeEj9Xc79guQUPnpH/sSDAwJWMaxZKMWFH2EdfRmcanHe4FeTTpiYwLe9JTFY4FA0syZ7K9ulhZ9rEx8h+uZC1YgpDcVZrJDTDdE8qUj4UWHAB7dbHtlOQlK9dQXH3bsxS1oQUHwZSMhg9T7zU1x+n6YfnGg9my/WVowbUAydwZb99ziFgzIRZy6DrYQ8EAQtG41c8ITy7QghWjBStGC1ZMqIIxxW7vmYQi2L9MXRFTglGn4zWWmWJC1RIWTDDKYGwahNOj8YqYEoyV6Cxq+Zsf0LSCubx/B3N1UQDBkNsgg5LP60erP/yCRk14mLeH2bNxS8wIxjh0w+60jOVacecDz3KZNLGk9EzBLBJyWebaz9aL7Yhrhk42HiT3P7cqYkkw1i9MvOcp8b4VhuR2lNx6wEnBz+OBcV9rSm7ehz75vFxsQ2CNb1rX68Jf4+uGmKoiMP3vNw+ImDBllni4/FDlL+J1wewFFJ/YidZ+fipz123YSs1a8fGQvbqKCCAYoGFjybdwfWqPaQUv0e4fjH8JNr9kFa0oWyt+R6wr30opLbPrXi6IOcHAlDzaT3JNTY34if/vY8VXG76LnFwQrYKxyj2gYBBAsj2MzI1AtWAnugR3ptJVa4ScX38/HFwwsKqL8WdKRp0b0cy1iCrBLDOj3410NXelBuSMp/jmlxkSZftamJLtDd+68i2UEokGTUZUCYYM3G3FpxtyQl00aEqeMOVJ+vSLDZSCRSvRIBdElWA3QDKGSTHm4GTCVRVnjWAAyViGKnsvUpxVgqMRLVgxWrBitGDFaMGK0YIVowUrRgtWjBasGC1YMU2zjviEZY0isn78D43o8OjRWGtOAAAAAElFTkSuQmCC;" parent="1" vertex="1">
          <mxGeometry x="150" y="424.5" width="50" height="50" as="geometry" />
        </mxCell>
        <mxCell id="200" value="2" style="ellipse;whiteSpace=wrap;html=1;aspect=fixed;fontColor=#FFFFFF;fontSize=8;strokeColor=#98A2AE;fontFamily=Manrope;fontSource=https://fonts.googleapis.com/css?family=Manrope;fillColor=#BEC8D2;strokeWidth=1;" parent="1" vertex="1">
          <mxGeometry x="145" y="439" width="10" height="10" as="geometry" />
        </mxCell>
        <mxCell id="46" value="" style="shape=image;verticalLabelPosition=bottom;labelBackgroundColor=default;verticalAlign=top;aspect=fixed;imageAspect=0;image=data:image/png,iVBORw0KGgoAAAANSUhEUgAAAFgAAABYCAYAAABxlTA0AAAAAXNSR0IArs4c6QAAAARnQU1BAACxjwv8YQUAAAAJcEhZcwAAFxEAABcRAcom8z8AAAikSURBVHhe7ZwJbBRVGMe3pUBrASkUlVMpV6EUQSlCCqhEjbYiIQEUETFyVEAr3hDwquCFVE2EYoTWCBTk8KgmiBfGqDEoRbkE5JByWW9UtJTC5/d/MwPD8na7OzOvu4vvS35pd3bezPS337735r039flSskijiKZZf2nBKtGCFaMFK0YLVowWrBgtWDFasGK0YMVowYrRghUTlYIbX8IX1lv+XqwRVYKb9SFfYiYlpPYlX1IP+T6xRtQIhlxfF2rf4wbasHE7jc57lF+nyfeVgYyPS+cyncWHJI4n26+uiQrBpty0jFzavfcAIU6cOEE33jY1NMnnXkoJLfrSkFH308hx0ykzeyT5knvK961rIi7YytxuOSz3oJBrxQlm+JiHapfcqCc1aXcFVR2tFuUK5y7hMh3l+9Y1ERV8WuaeLtcKSB5Rm2QW3Ljt5VT582+izKw5xbx/J/m+dU3EBFtyOXP3VBwSYhBHzSw8Wm38tCKoZC3YjwDVwosvv04LFr0tft+6fQ/d9eBs8TsCdXLA6kILtgG5cWa1UHFK7qLlq1lKGyoqXiVe7913iHz1utJtEx8TrxGoLqQNnxZsg7tQPfuNoH0HK4UMxOIV75GvQQZLuYhKSt8V2yr2/0gNL8jmbe1ofP5Msc2K2yc/Tr6G3U8dUwu2kdCVcoffLUQgFiNzIfeci1lKOhUveUdsh+DElv2N7hZnrF3yHPQSErrxxZt3e1qwDVH/duL+6gx6lbPVl8RiIdesl88Q3KiXIdLXge6Z/jy9ULRUVB3o+548phYsoSHfbTXgrznGHSAX2wIJxnuQjP2R7Xa5QAuW0BT4DegEEyzK8P7+ZYAWHCK1CQ6EFhwiWrBiIi0YjafV4Mred4IWbMLnzhkxhdp1v150JT2T/L8XzI1mHN/8jJ1cIMpu2rqTUtsMNLLZC8laMAvmu8LSVe+LsojyjdupuVeSdRXBNO5F8Uk9xC27FetZsshkt9WFFsxAIBo3vomxSy7fZEp2k8lasEkzBrftfLfon8muqgvHgnGyZL4gliImGj3h/JPDlW4Ez5hZxMdK9Tt2qFzItKEX5y+j48ePi+OJ6qKtQ8mOBfMnnX3tOCopfYezrswTFrLcHbsqxB/lRvD6b7fR3KKl4sMKm5I36CUuO2/hSvrn3ypxPAQavgsuGmRUJbJrCIRjwb6ONPn+Z8zTex8/saxwBDdhwX/+fcQsrSY+W7eREs7pceZgUzAcC45Pp+FjptL+A5Ui27xkHx/zy683GQPu3MJLz2+H90luPZDLbKadu/fR9/wtcAyX37FzL33DDVx19TFTLdERzubcYfkUl5QJafLrkOFYMPcf66VeRkmt+otM85IkRsiVnTcI9VL7ivURWBnkCC5bD3UsN5AYe64+Zgg+8k8VDcrN4+0dpOcNimPB4NzexldYBRgnlp0zGE24DMo5AWXF7MmFNOm+p4VYBORemTPemVzgSvDZBOpVXxrlP/ScqZZEIzcod4JzuUCJ4EAD49EKrpUl2uUa1YJLucBzwWgAMOPrPx0UrWAsIjGTpj8xz1RrNGhX5nggF3gqWGRCGk3i7hsWkPgSuUuDuk22b7RgCn7ltbeEXKNaMBs03N3JyoSDZ4JNuWPueFRcKGLB4jKKwyQl3pOViRaQBPytw6LBwSPv9SZzLTwRbModnfewqdaIcXcWGNVFOP3GSIBMbcKNHG6Fcb1eVmuuBZtyb817xNRqRMhre6MJFd80V4ItubZqARGTclXhWLAkc7H0dOjN9/H2tkanvZEb+GZDdt5giJsU2bE8wGl2OxJsyrU3aFVV1TQ2f6aYfsHIlluSMQYrO3cA4rgebcRlZMfyAtxKO5IctmA+CaZX8qbMMtUagYGRXXv2U+VPv4phQ7fgQRgxHhFKJnOGQe6Wbbulx/KCy9F1QyMoO38wwhbMNw+JKb1py/Y9plo1gQ8KAz+hCkaW/XH4L7O09zH4JnTfusjPHwxHVQRncOsOV9Fmzhgr0EF/oaiUZheWUCH/LJzngMJXafN3u8TxMGwZrmBkGgID7oW4Dtk5HNIla5izZ/ccCUY/MT6dWrYfRJtMIZhewSyAaOAEnZiOYdKC5hW7nzKaNaeEj9Xc79guQUPnpH/sSDAwJWMaxZKMWFH2EdfRmcanHe4FeTTpiYwLe9JTFY4FA0syZ7K9ulhZ9rEx8h+uZC1YgpDcVZrJDTDdE8qUj4UWHAB7dbHtlOQlK9dQXH3bsxS1oQUHwZSMhg9T7zU1x+n6YfnGg9my/WVowbUAydwZb99ziFgzIRZy6DrYQ8EAQtG41c8ITy7QghWjBStGC1ZMqIIxxW7vmYQi2L9MXRFTglGn4zWWmWJC1RIWTDDKYGwahNOj8YqYEoyV6Cxq+Zsf0LSCubx/B3N1UQDBkNsgg5LP60erP/yCRk14mLeH2bNxS8wIxjh0w+60jOVacecDz3KZNLGk9EzBLBJyWebaz9aL7Yhrhk42HiT3P7cqYkkw1i9MvOcp8b4VhuR2lNx6wEnBz+OBcV9rSm7ehz75vFxsQ2CNb1rX68Jf4+uGmKoiMP3vNw+ImDBllni4/FDlL+J1wewFFJ/YidZ+fipz123YSs1a8fGQvbqKCCAYoGFjybdwfWqPaQUv0e4fjH8JNr9kFa0oWyt+R6wr30opLbPrXi6IOcHAlDzaT3JNTY34if/vY8VXG76LnFwQrYKxyj2gYBBAsj2MzI1AtWAnugR3ptJVa4ScX38/HFwwsKqL8WdKRp0b0cy1iCrBLDOj3410NXelBuSMp/jmlxkSZftamJLtDd+68i2UEokGTUZUCYYM3G3FpxtyQl00aEqeMOVJ+vSLDZSCRSvRIBdElWA3QDKGSTHm4GTCVRVnjWAAyViGKnsvUpxVgqMRLVgxWrBitGDFaMGK0YIVowUrRgtWjBasGC1YMU2zjviEZY0isn78D43o8OjRWGtOAAAAAElFTkSuQmCC;" parent="1" vertex="1">
          <mxGeometry x="25" y="313.58" width="50" height="50" as="geometry" />
        </mxCell>
        <mxCell id="47" value="1" style="ellipse;whiteSpace=wrap;html=1;aspect=fixed;fontColor=#FFFFFF;fontSize=8;strokeColor=#98A2AE;fontFamily=Manrope;fontSource=https://fonts.googleapis.com/css?family=Manrope;fillColor=#BEC8D2;strokeWidth=1;" parent="1" vertex="1">
          <mxGeometry x="68" y="273.05" width="10" height="10" as="geometry" />
        </mxCell>
        <mxCell id="49" value="2" style="ellipse;whiteSpace=wrap;html=1;aspect=fixed;fontColor=#FFFFFF;fontSize=8;strokeColor=#98A2AE;fontFamily=Manrope;fontSource=https://fonts.googleapis.com/css?family=Manrope;fillColor=#BEC8D2;strokeWidth=1;" parent="1" vertex="1">
          <mxGeometry x="67" y="394" width="10" height="10" as="geometry" />
        </mxCell>
        <mxCell id="9zTi3nsKfj2Z9hqAuiEz-309" value="&lt;font color=&quot;#1a1a1a&quot;&gt;SR-ISIS 1 - IGP Metrics&lt;/font&gt;" style="rounded=1;whiteSpace=wrap;html=1;fontSize=8;strokeWidth=1;fillColor=#d5e8d4;strokeColor=#82b366;fontFamily=Manrope;fontSource=https%3A%2F%2Ffonts.googleapis.com%2Fcss%3Ffamily%3DManrope;spacing=0;" parent="1" vertex="1">
          <mxGeometry x="14" y="517.5" width="331" height="12" as="geometry" />
        </mxCell>
        <mxCell id="9zTi3nsKfj2Z9hqAuiEz-353" value="" style="edgeStyle=none;rounded=0;orthogonalLoop=1;jettySize=auto;html=1;endArrow=blockThin;endFill=1;strokeColor=#98A2AE;fontSize=5;fontFamily=Manrope;fontSource=https%3A%2F%2Ffonts.googleapis.com%2Fcss%3Ffamily%3DManrope;labelBackgroundColor=#4D5766;fontColor=#FFFFFF;endSize=0;startSize=0;strokeWidth=2;exitX=-0.008;exitY=0.626;exitDx=0;exitDy=0;entryX=1;entryY=0.5;entryDx=0;entryDy=0;exitPerimeter=0;" parent="1" source="208" target="92" edge="1">
          <mxGeometry relative="1" as="geometry">
            <mxPoint x="155" y="457" as="sourcePoint" />
            <mxPoint x="111" y="259.5799999999999" as="targetPoint" />
          </mxGeometry>
        </mxCell>
        <mxCell id="9zTi3nsKfj2Z9hqAuiEz-356" value="" style="edgeStyle=none;rounded=0;orthogonalLoop=1;jettySize=auto;html=1;exitX=1;exitY=1;exitDx=0;exitDy=0;endArrow=blockThin;endFill=1;strokeColor=#98A2AE;fontSize=5;fontFamily=Manrope;fontSource=https%3A%2F%2Ffonts.googleapis.com%2Fcss%3Ffamily%3DManrope;labelBackgroundColor=#4D5766;fontColor=#FFFFFF;endSize=0;startSize=0;strokeWidth=2;" parent="1" source="49" target="220" edge="1">
          <mxGeometry relative="1" as="geometry">
            <mxPoint x="82" y="374" as="sourcePoint" />
            <mxPoint x="116" y="425" as="targetPoint" />
          </mxGeometry>
        </mxCell>
        <mxCell id="220" value="" style="ellipse;whiteSpace=wrap;html=1;aspect=fixed;fontColor=#FFFFFF;fontSize=6;fontFamily=Manrope;fontSource=https%3A%2F%2Ffonts.googleapis.com%2Fcss%3Ffamily%3DManrope;fillColor=#BEC8D2;strokeColor=none;" parent="1" vertex="1">
          <mxGeometry x="106" y="421" width="4" height="4" as="geometry" />
        </mxCell>
        <mxCell id="92" value="" style="ellipse;whiteSpace=wrap;html=1;aspect=fixed;fontColor=#FFFFFF;fontSize=6;fontFamily=Manrope;fontSource=https%3A%2F%2Ffonts.googleapis.com%2Fcss%3Ffamily%3DManrope;fillColor=#BEC8D2;strokeColor=none;" parent="1" vertex="1">
          <mxGeometry x="107" y="259.58" width="4" height="4" as="geometry" />
        </mxCell>
        <mxCell id="9zTi3nsKfj2Z9hqAuiEz-358" value="&lt;font style=&quot;font-size: 8px;&quot;&gt;PE1&lt;br&gt;10.0.0.3&lt;/font&gt;" style="text;html=1;align=center;verticalAlign=middle;resizable=0;points=[];autosize=1;fontSize=14;fontFamily=Manrope;fontStyle=0;fontColor=#FFFFFF;" parent="1" vertex="1">
          <mxGeometry x="20" y="239.05" width="44" height="46" as="geometry" />
        </mxCell>
        <mxCell id="9zTi3nsKfj2Z9hqAuiEz-362" value="" style="edgeStyle=none;rounded=0;orthogonalLoop=1;jettySize=auto;html=1;endArrow=blockThin;endFill=1;strokeColor=#98A2AE;fontSize=5;fontFamily=Manrope;fontSource=https%3A%2F%2Ffonts.googleapis.com%2Fcss%3Ffamily%3DManrope;labelBackgroundColor=#4D5766;fontColor=#FFFFFF;endSize=0;startSize=0;strokeWidth=2;exitX=1;exitY=0.5;exitDx=0;exitDy=0;entryX=0;entryY=1;entryDx=0;entryDy=0;" parent="1" source="199" target="224" edge="1">
          <mxGeometry relative="1" as="geometry">
            <mxPoint x="210" y="448" as="sourcePoint" />
            <mxPoint x="253" y="438" as="targetPoint" />
          </mxGeometry>
        </mxCell>
        <mxCell id="224" value="" style="ellipse;whiteSpace=wrap;html=1;aspect=fixed;fontColor=#FFFFFF;fontSize=6;fontFamily=Manrope;fontSource=https%3A%2F%2Ffonts.googleapis.com%2Fcss%3Ffamily%3DManrope;fillColor=#BEC8D2;strokeColor=none;" parent="1" vertex="1">
          <mxGeometry x="244" y="422.5" width="4" height="4" as="geometry" />
        </mxCell>
        <mxCell id="9zTi3nsKfj2Z9hqAuiEz-363" value="" style="ellipse;whiteSpace=wrap;html=1;aspect=fixed;fontColor=#FFFFFF;fontSize=6;fontFamily=Manrope;fontSource=https%3A%2F%2Ffonts.googleapis.com%2Fcss%3Ffamily%3DManrope;fillColor=#BEC8D2;strokeColor=none;" parent="1" vertex="1">
          <mxGeometry x="244" y="259.5" width="4" height="4" as="geometry" />
        </mxCell>
        <mxCell id="fl8bqC6-7Vxig2I5YfBN-286" value="&lt;font color=&quot;#1a1a1a&quot;&gt;IGP-Metric 10&lt;/font&gt;" style="rounded=1;whiteSpace=wrap;html=1;fontSize=8;strokeWidth=1;fillColor=#d5e8d4;strokeColor=#82b366;fontFamily=Manrope;fontSource=https%3A%2F%2Ffonts.googleapis.com%2Fcss%3Ffamily%3DManrope;spacing=0;" parent="1" vertex="1">
          <mxGeometry x="107" y="270.73" width="37" height="18.27" as="geometry" />
        </mxCell>
        <mxCell id="fl8bqC6-7Vxig2I5YfBN-287" value="&lt;font color=&quot;#1a1a1a&quot;&gt;IGP-Metric 10&lt;/font&gt;" style="rounded=1;whiteSpace=wrap;html=1;fontSize=8;strokeWidth=1;fillColor=#d5e8d4;strokeColor=#82b366;fontFamily=Manrope;fontSource=https%3A%2F%2Ffonts.googleapis.com%2Fcss%3Ffamily%3DManrope;spacing=0;" parent="1" vertex="1">
          <mxGeometry x="207" y="274" width="37" height="18.27" as="geometry" />
        </mxCell>
        <mxCell id="fl8bqC6-7Vxig2I5YfBN-288" value="&lt;font color=&quot;#1a1a1a&quot;&gt;IGP-Metric 1000&lt;/font&gt;" style="rounded=1;whiteSpace=wrap;html=1;fontSize=8;strokeWidth=1;fillColor=#FF6666;strokeColor=#FF6666;fontFamily=Manrope;fontSource=https%3A%2F%2Ffonts.googleapis.com%2Fcss%3Ffamily%3DManrope;spacing=0;" parent="1" vertex="1">
          <mxGeometry x="106" y="398" width="37" height="18.27" as="geometry" />
        </mxCell>
        <mxCell id="fl8bqC6-7Vxig2I5YfBN-289" value="&lt;font color=&quot;#1a1a1a&quot;&gt;IGP-Metric 100&lt;/font&gt;" style="rounded=1;whiteSpace=wrap;html=1;fontSize=8;strokeWidth=1;fillColor=#FFB366;strokeColor=#FFB366;fontFamily=Manrope;fontSource=https%3A%2F%2Ffonts.googleapis.com%2Fcss%3Ffamily%3DManrope;spacing=0;" parent="1" vertex="1">
          <mxGeometry x="181" y="334.87" width="37" height="18.27" as="geometry" />
        </mxCell>
        <mxCell id="fl8bqC6-7Vxig2I5YfBN-290" value="&lt;font color=&quot;#1a1a1a&quot;&gt;IGP-Metric 1000&lt;/font&gt;" style="rounded=1;whiteSpace=wrap;html=1;fontSize=8;strokeWidth=1;fillColor=#FF6666;strokeColor=#FF6666;fontFamily=Manrope;fontSource=https%3A%2F%2Ffonts.googleapis.com%2Fcss%3Ffamily%3DManrope;spacing=0;" parent="1" vertex="1">
          <mxGeometry x="218" y="396.23" width="37" height="18.27" as="geometry" />
        </mxCell>
        <mxCell id="fl8bqC6-7Vxig2I5YfBN-292" value="" style="rounded=0;whiteSpace=wrap;html=1;" parent="1" vertex="1">
          <mxGeometry x="639" y="283.72999999999996" width="60" height="111" as="geometry" />
        </mxCell>
        <mxCell id="fl8bqC6-7Vxig2I5YfBN-293" value="" style="rounded=0;whiteSpace=wrap;html=1;" parent="1" vertex="1">
          <mxGeometry x="386" y="283.5" width="60" height="111" as="geometry" />
        </mxCell>
        <mxCell id="fl8bqC6-7Vxig2I5YfBN-294" style="edgeStyle=none;rounded=0;orthogonalLoop=1;jettySize=auto;html=1;entryX=0;entryY=0.5;entryDx=0;entryDy=0;endArrow=none;endFill=0;strokeColor=#98A2AE;startArrow=blockThin;startFill=1;fontSize=5;fontFamily=Manrope;fontSource=https%3A%2F%2Ffonts.googleapis.com%2Fcss%3Ffamily%3DManrope;labelBackgroundColor=#4D5766;fontColor=#FFFFFF;endSize=0;startSize=0;strokeWidth=2;" parent="1" source="fl8bqC6-7Vxig2I5YfBN-327" target="fl8bqC6-7Vxig2I5YfBN-298" edge="1">
          <mxGeometry relative="1" as="geometry">
            <mxPoint x="611" y="248" as="sourcePoint" />
          </mxGeometry>
        </mxCell>
        <mxCell id="fl8bqC6-7Vxig2I5YfBN-295" value="" style="edgeStyle=none;rounded=0;orthogonalLoop=1;jettySize=auto;html=1;exitX=1.031;exitY=0.321;exitDx=0;exitDy=0;entryX=0;entryY=1;entryDx=0;entryDy=0;endArrow=blockThin;endFill=1;strokeColor=#98A2AE;fontSize=5;fontFamily=Manrope;fontSource=https%3A%2F%2Ffonts.googleapis.com%2Fcss%3Ffamily%3DManrope;labelBackgroundColor=#4D5766;fontColor=#FFFFFF;endSize=0;startSize=0;strokeWidth=2;exitPerimeter=0;" parent="1" source="fl8bqC6-7Vxig2I5YfBN-317" target="fl8bqC6-7Vxig2I5YfBN-323" edge="1">
          <mxGeometry relative="1" as="geometry">
            <mxPoint x="463.99999999997135" y="317.43" as="sourcePoint" />
            <mxPoint x="523.4999999999125" y="317.43" as="targetPoint" />
          </mxGeometry>
        </mxCell>
        <mxCell id="fl8bqC6-7Vxig2I5YfBN-296" value="" style="shape=image;verticalLabelPosition=bottom;labelBackgroundColor=default;verticalAlign=top;aspect=fixed;imageAspect=0;image=data:image/png,iVBORw0KGgoAAAANSUhEUgAAAFgAAABYCAYAAABxlTA0AAAAAXNSR0IArs4c6QAAAARnQU1BAACxjwv8YQUAAAAJcEhZcwAAFxEAABcRAcom8z8AAAikSURBVHhe7ZwJbBRVGMe3pUBrASkUlVMpV6EUQSlCCqhEjbYiIQEUETFyVEAr3hDwquCFVE2EYoTWCBTk8KgmiBfGqDEoRbkE5JByWW9UtJTC5/d/MwPD8na7OzOvu4vvS35pd3bezPS337735r039flSskijiKZZf2nBKtGCFaMFK0YLVowWrBgtWDFasGK0YMVowYrRghUTlYIbX8IX1lv+XqwRVYKb9SFfYiYlpPYlX1IP+T6xRtQIhlxfF2rf4wbasHE7jc57lF+nyfeVgYyPS+cyncWHJI4n26+uiQrBpty0jFzavfcAIU6cOEE33jY1NMnnXkoJLfrSkFH308hx0ykzeyT5knvK961rIi7YytxuOSz3oJBrxQlm+JiHapfcqCc1aXcFVR2tFuUK5y7hMh3l+9Y1ERV8WuaeLtcKSB5Rm2QW3Ljt5VT582+izKw5xbx/J/m+dU3EBFtyOXP3VBwSYhBHzSw8Wm38tCKoZC3YjwDVwosvv04LFr0tft+6fQ/d9eBs8TsCdXLA6kILtgG5cWa1UHFK7qLlq1lKGyoqXiVe7913iHz1utJtEx8TrxGoLqQNnxZsg7tQPfuNoH0HK4UMxOIV75GvQQZLuYhKSt8V2yr2/0gNL8jmbe1ofP5Msc2K2yc/Tr6G3U8dUwu2kdCVcoffLUQgFiNzIfeci1lKOhUveUdsh+DElv2N7hZnrF3yHPQSErrxxZt3e1qwDVH/duL+6gx6lbPVl8RiIdesl88Q3KiXIdLXge6Z/jy9ULRUVB3o+548phYsoSHfbTXgrznGHSAX2wIJxnuQjP2R7Xa5QAuW0BT4DegEEyzK8P7+ZYAWHCK1CQ6EFhwiWrBiIi0YjafV4Mred4IWbMLnzhkxhdp1v150JT2T/L8XzI1mHN/8jJ1cIMpu2rqTUtsMNLLZC8laMAvmu8LSVe+LsojyjdupuVeSdRXBNO5F8Uk9xC27FetZsshkt9WFFsxAIBo3vomxSy7fZEp2k8lasEkzBrftfLfon8muqgvHgnGyZL4gliImGj3h/JPDlW4Ez5hZxMdK9Tt2qFzItKEX5y+j48ePi+OJ6qKtQ8mOBfMnnX3tOCopfYezrswTFrLcHbsqxB/lRvD6b7fR3KKl4sMKm5I36CUuO2/hSvrn3ypxPAQavgsuGmRUJbJrCIRjwb6ONPn+Z8zTex8/saxwBDdhwX/+fcQsrSY+W7eREs7pceZgUzAcC45Pp+FjptL+A5Ui27xkHx/zy683GQPu3MJLz2+H90luPZDLbKadu/fR9/wtcAyX37FzL33DDVx19TFTLdERzubcYfkUl5QJafLrkOFYMPcf66VeRkmt+otM85IkRsiVnTcI9VL7ivURWBnkCC5bD3UsN5AYe64+Zgg+8k8VDcrN4+0dpOcNimPB4NzexldYBRgnlp0zGE24DMo5AWXF7MmFNOm+p4VYBORemTPemVzgSvDZBOpVXxrlP/ScqZZEIzcod4JzuUCJ4EAD49EKrpUl2uUa1YJLucBzwWgAMOPrPx0UrWAsIjGTpj8xz1RrNGhX5nggF3gqWGRCGk3i7hsWkPgSuUuDuk22b7RgCn7ltbeEXKNaMBs03N3JyoSDZ4JNuWPueFRcKGLB4jKKwyQl3pOViRaQBPytw6LBwSPv9SZzLTwRbModnfewqdaIcXcWGNVFOP3GSIBMbcKNHG6Fcb1eVmuuBZtyb817xNRqRMhre6MJFd80V4ItubZqARGTclXhWLAkc7H0dOjN9/H2tkanvZEb+GZDdt5giJsU2bE8wGl2OxJsyrU3aFVV1TQ2f6aYfsHIlluSMQYrO3cA4rgebcRlZMfyAtxKO5IctmA+CaZX8qbMMtUagYGRXXv2U+VPv4phQ7fgQRgxHhFKJnOGQe6Wbbulx/KCy9F1QyMoO38wwhbMNw+JKb1py/Y9plo1gQ8KAz+hCkaW/XH4L7O09zH4JnTfusjPHwxHVQRncOsOV9Fmzhgr0EF/oaiUZheWUCH/LJzngMJXafN3u8TxMGwZrmBkGgID7oW4Dtk5HNIla5izZ/ccCUY/MT6dWrYfRJtMIZhewSyAaOAEnZiOYdKC5hW7nzKaNaeEj9Xc79guQUPnpH/sSDAwJWMaxZKMWFH2EdfRmcanHe4FeTTpiYwLe9JTFY4FA0syZ7K9ulhZ9rEx8h+uZC1YgpDcVZrJDTDdE8qUj4UWHAB7dbHtlOQlK9dQXH3bsxS1oQUHwZSMhg9T7zU1x+n6YfnGg9my/WVowbUAydwZb99ziFgzIRZy6DrYQ8EAQtG41c8ITy7QghWjBStGC1ZMqIIxxW7vmYQi2L9MXRFTglGn4zWWmWJC1RIWTDDKYGwahNOj8YqYEoyV6Cxq+Zsf0LSCubx/B3N1UQDBkNsgg5LP60erP/yCRk14mLeH2bNxS8wIxjh0w+60jOVacecDz3KZNLGk9EzBLBJyWebaz9aL7Yhrhk42HiT3P7cqYkkw1i9MvOcp8b4VhuR2lNx6wEnBz+OBcV9rSm7ehz75vFxsQ2CNb1rX68Jf4+uGmKoiMP3vNw+ImDBllni4/FDlL+J1wewFFJ/YidZ+fipz123YSs1a8fGQvbqKCCAYoGFjybdwfWqPaQUv0e4fjH8JNr9kFa0oWyt+R6wr30opLbPrXi6IOcHAlDzaT3JNTY34if/vY8VXG76LnFwQrYKxyj2gYBBAsj2MzI1AtWAnugR3ptJVa4ScX38/HFwwsKqL8WdKRp0b0cy1iCrBLDOj3410NXelBuSMp/jmlxkSZftamJLtDd+68i2UEokGTUZUCYYM3G3FpxtyQl00aEqeMOVJ+vSLDZSCRSvRIBdElWA3QDKGSTHm4GTCVRVnjWAAyViGKnsvUpxVgqMRLVgxWrBitGDFaMGK0YIVowUrRgtWjBasGC1YMU2zjviEZY0isn78D43o8OjRWGtOAAAAAElFTkSuQmCC;" parent="1" vertex="1">
          <mxGeometry x="646" y="312.65" width="50" height="50" as="geometry" />
        </mxCell>
        <mxCell id="fl8bqC6-7Vxig2I5YfBN-297" value="2" style="ellipse;whiteSpace=wrap;html=1;aspect=fixed;fontColor=#FFFFFF;fontSize=8;strokeColor=#98A2AE;fontFamily=Manrope;fontSource=https://fonts.googleapis.com/css?family=Manrope;fillColor=#BEC8D2;strokeWidth=1;" parent="1" vertex="1">
          <mxGeometry x="646" y="393.73" width="10" height="10" as="geometry" />
        </mxCell>
        <mxCell id="fl8bqC6-7Vxig2I5YfBN-298" value="1" style="ellipse;whiteSpace=wrap;html=1;aspect=fixed;fontColor=#FFFFFF;fontSize=8;strokeColor=#98A2AE;fontFamily=Manrope;fontSource=https://fonts.googleapis.com/css?family=Manrope;fillColor=#BEC8D2;strokeWidth=1;" parent="1" vertex="1">
          <mxGeometry x="644" y="273" width="10" height="10" as="geometry" />
        </mxCell>
        <mxCell id="fl8bqC6-7Vxig2I5YfBN-299" style="edgeStyle=none;rounded=0;orthogonalLoop=1;jettySize=auto;html=1;entryX=0.5;entryY=1;entryDx=0;entryDy=0;endArrow=none;endFill=0;strokeColor=#98A2AE;startArrow=blockThin;startFill=1;fontSize=5;fontFamily=Manrope;fontSource=https%3A%2F%2Ffonts.googleapis.com%2Fcss%3Ffamily%3DManrope;labelBackgroundColor=#4D5766;fontColor=#FFFFFF;endSize=0;startSize=0;strokeWidth=2;exitX=0.5;exitY=0;exitDx=0;exitDy=0;" parent="1" source="fl8bqC6-7Vxig2I5YfBN-301" target="fl8bqC6-7Vxig2I5YfBN-311" edge="1">
          <mxGeometry relative="1" as="geometry">
            <mxPoint x="542" y="383" as="sourcePoint" />
          </mxGeometry>
        </mxCell>
        <mxCell id="fl8bqC6-7Vxig2I5YfBN-300" value="&lt;font style=&quot;font-size: 8px;&quot;&gt;P4&lt;br&gt;4.4.4.4&lt;/font&gt;" style="text;html=1;align=center;verticalAlign=middle;resizable=0;points=[];autosize=1;fontSize=14;fontFamily=Manrope;fontStyle=0;fontColor=#FFFFFF;" parent="1" vertex="1">
          <mxGeometry x="516" y="471.5" width="40" height="46" as="geometry" />
        </mxCell>
        <mxCell id="fl8bqC6-7Vxig2I5YfBN-301" value="" style="ellipse;whiteSpace=wrap;html=1;aspect=fixed;fontColor=#FFFFFF;fontSize=6;fontFamily=Manrope;fontSource=https%3A%2F%2Ffonts.googleapis.com%2Fcss%3Ffamily%3DManrope;fillColor=#BEC8D2;strokeColor=none;" parent="1" vertex="1">
          <mxGeometry x="539" y="342" width="4" height="4" as="geometry" />
        </mxCell>
        <mxCell id="fl8bqC6-7Vxig2I5YfBN-302" value="" style="edgeStyle=none;rounded=0;orthogonalLoop=1;jettySize=auto;html=1;exitX=0.5;exitY=0;exitDx=0;exitDy=0;endArrow=blockThin;endFill=1;strokeColor=#98A2AE;fontSize=5;fontFamily=Manrope;fontSource=https%3A%2F%2Ffonts.googleapis.com%2Fcss%3Ffamily%3DManrope;labelBackgroundColor=#4D5766;fontColor=#FFFFFF;endSize=0;startSize=0;strokeWidth=2;entryX=0.5;entryY=1;entryDx=0;entryDy=0;" parent="1" source="fl8bqC6-7Vxig2I5YfBN-312" target="fl8bqC6-7Vxig2I5YfBN-301" edge="1">
          <mxGeometry relative="1" as="geometry">
            <mxPoint x="534" y="518" as="sourcePoint" />
            <mxPoint x="538" y="388" as="targetPoint" />
          </mxGeometry>
        </mxCell>
        <mxCell id="fl8bqC6-7Vxig2I5YfBN-303" value="" style="shape=image;verticalLabelPosition=bottom;labelBackgroundColor=default;verticalAlign=top;aspect=fixed;imageAspect=0;image=data:image/png,iVBORw0KGgoAAAANSUhEUgAAAFgAAABYCAYAAABxlTA0AAAAAXNSR0IArs4c6QAAAARnQU1BAACxjwv8YQUAAAAJcEhZcwAAFxEAABcRAcom8z8AAAikSURBVHhe7ZwJbBRVGMe3pUBrASkUlVMpV6EUQSlCCqhEjbYiIQEUETFyVEAr3hDwquCFVE2EYoTWCBTk8KgmiBfGqDEoRbkE5JByWW9UtJTC5/d/MwPD8na7OzOvu4vvS35pd3bezPS337735r039flSskijiKZZf2nBKtGCFaMFK0YLVowWrBgtWDFasGK0YMVowYrRghUTlYIbX8IX1lv+XqwRVYKb9SFfYiYlpPYlX1IP+T6xRtQIhlxfF2rf4wbasHE7jc57lF+nyfeVgYyPS+cyncWHJI4n26+uiQrBpty0jFzavfcAIU6cOEE33jY1NMnnXkoJLfrSkFH308hx0ykzeyT5knvK961rIi7YytxuOSz3oJBrxQlm+JiHapfcqCc1aXcFVR2tFuUK5y7hMh3l+9Y1ERV8WuaeLtcKSB5Rm2QW3Ljt5VT582+izKw5xbx/J/m+dU3EBFtyOXP3VBwSYhBHzSw8Wm38tCKoZC3YjwDVwosvv04LFr0tft+6fQ/d9eBs8TsCdXLA6kILtgG5cWa1UHFK7qLlq1lKGyoqXiVe7913iHz1utJtEx8TrxGoLqQNnxZsg7tQPfuNoH0HK4UMxOIV75GvQQZLuYhKSt8V2yr2/0gNL8jmbe1ofP5Msc2K2yc/Tr6G3U8dUwu2kdCVcoffLUQgFiNzIfeci1lKOhUveUdsh+DElv2N7hZnrF3yHPQSErrxxZt3e1qwDVH/duL+6gx6lbPVl8RiIdesl88Q3KiXIdLXge6Z/jy9ULRUVB3o+548phYsoSHfbTXgrznGHSAX2wIJxnuQjP2R7Xa5QAuW0BT4DegEEyzK8P7+ZYAWHCK1CQ6EFhwiWrBiIi0YjafV4Mred4IWbMLnzhkxhdp1v150JT2T/L8XzI1mHN/8jJ1cIMpu2rqTUtsMNLLZC8laMAvmu8LSVe+LsojyjdupuVeSdRXBNO5F8Uk9xC27FetZsshkt9WFFsxAIBo3vomxSy7fZEp2k8lasEkzBrftfLfon8muqgvHgnGyZL4gliImGj3h/JPDlW4Ez5hZxMdK9Tt2qFzItKEX5y+j48ePi+OJ6qKtQ8mOBfMnnX3tOCopfYezrswTFrLcHbsqxB/lRvD6b7fR3KKl4sMKm5I36CUuO2/hSvrn3ypxPAQavgsuGmRUJbJrCIRjwb6ONPn+Z8zTex8/saxwBDdhwX/+fcQsrSY+W7eREs7pceZgUzAcC45Pp+FjptL+A5Ui27xkHx/zy683GQPu3MJLz2+H90luPZDLbKadu/fR9/wtcAyX37FzL33DDVx19TFTLdERzubcYfkUl5QJafLrkOFYMPcf66VeRkmt+otM85IkRsiVnTcI9VL7ivURWBnkCC5bD3UsN5AYe64+Zgg+8k8VDcrN4+0dpOcNimPB4NzexldYBRgnlp0zGE24DMo5AWXF7MmFNOm+p4VYBORemTPemVzgSvDZBOpVXxrlP/ScqZZEIzcod4JzuUCJ4EAD49EKrpUl2uUa1YJLucBzwWgAMOPrPx0UrWAsIjGTpj8xz1RrNGhX5nggF3gqWGRCGk3i7hsWkPgSuUuDuk22b7RgCn7ltbeEXKNaMBs03N3JyoSDZ4JNuWPueFRcKGLB4jKKwyQl3pOViRaQBPytw6LBwSPv9SZzLTwRbModnfewqdaIcXcWGNVFOP3GSIBMbcKNHG6Fcb1eVmuuBZtyb817xNRqRMhre6MJFd80V4ItubZqARGTclXhWLAkc7H0dOjN9/H2tkanvZEb+GZDdt5giJsU2bE8wGl2OxJsyrU3aFVV1TQ2f6aYfsHIlluSMQYrO3cA4rgebcRlZMfyAtxKO5IctmA+CaZX8qbMMtUagYGRXXv2U+VPv4phQ7fgQRgxHhFKJnOGQe6Wbbulx/KCy9F1QyMoO38wwhbMNw+JKb1py/Y9plo1gQ8KAz+hCkaW/XH4L7O09zH4JnTfusjPHwxHVQRncOsOV9Fmzhgr0EF/oaiUZheWUCH/LJzngMJXafN3u8TxMGwZrmBkGgID7oW4Dtk5HNIla5izZ/ccCUY/MT6dWrYfRJtMIZhewSyAaOAEnZiOYdKC5hW7nzKaNaeEj9Xc79guQUPnpH/sSDAwJWMaxZKMWFH2EdfRmcanHe4FeTTpiYwLe9JTFY4FA0syZ7K9ulhZ9rEx8h+uZC1YgpDcVZrJDTDdE8qUj4UWHAB7dbHtlOQlK9dQXH3bsxS1oQUHwZSMhg9T7zU1x+n6YfnGg9my/WVowbUAydwZb99ziFgzIRZy6DrYQ8EAQtG41c8ITy7QghWjBStGC1ZMqIIxxW7vmYQi2L9MXRFTglGn4zWWmWJC1RIWTDDKYGwahNOj8YqYEoyV6Cxq+Zsf0LSCubx/B3N1UQDBkNsgg5LP60erP/yCRk14mLeH2bNxS8wIxjh0w+60jOVacecDz3KZNLGk9EzBLBJyWebaz9aL7Yhrhk42HiT3P7cqYkkw1i9MvOcp8b4VhuR2lNx6wEnBz+OBcV9rSm7ehz75vFxsQ2CNb1rX68Jf4+uGmKoiMP3vNw+ImDBllni4/FDlL+J1wewFFJ/YidZ+fipz123YSs1a8fGQvbqKCCAYoGFjybdwfWqPaQUv0e4fjH8JNr9kFa0oWyt+R6wr30opLbPrXi6IOcHAlDzaT3JNTY34if/vY8VXG76LnFwQrYKxyj2gYBBAsj2MzI1AtWAnugR3ptJVa4ScX38/HFwwsKqL8WdKRp0b0cy1iCrBLDOj3410NXelBuSMp/jmlxkSZftamJLtDd+68i2UEokGTUZUCYYM3G3FpxtyQl00aEqeMOVJ+vSLDZSCRSvRIBdElWA3QDKGSTHm4GTCVRVnjWAAyViGKnsvUpxVgqMRLVgxWrBitGDFaMGK0YIVowUrRgtWjBasGC1YMU2zjviEZY0isn78D43o8OjRWGtOAAAAAElFTkSuQmCC;" parent="1" vertex="1">
          <mxGeometry x="516" y="214" width="50" height="50" as="geometry" />
        </mxCell>
        <mxCell id="fl8bqC6-7Vxig2I5YfBN-304" value="2" style="ellipse;whiteSpace=wrap;html=1;aspect=fixed;fontColor=#FFFFFF;fontSize=8;strokeColor=#98A2AE;fontFamily=Manrope;fontSource=https://fonts.googleapis.com/css?family=Manrope;fillColor=#BEC8D2;strokeWidth=1;" parent="1" vertex="1">
          <mxGeometry x="506" y="241.5" width="10" height="10" as="geometry" />
        </mxCell>
        <mxCell id="fl8bqC6-7Vxig2I5YfBN-305" value="3" style="ellipse;whiteSpace=wrap;html=1;aspect=fixed;fontColor=#FFFFFF;fontSize=8;strokeColor=#98A2AE;fontFamily=Manrope;fontSource=https://fonts.googleapis.com/css?family=Manrope;fillColor=#BEC8D2;strokeWidth=1;" parent="1" vertex="1">
          <mxGeometry x="566" y="241.5" width="10" height="10" as="geometry" />
        </mxCell>
        <mxCell id="fl8bqC6-7Vxig2I5YfBN-306" value="&lt;font style=&quot;font-size: 8px;&quot;&gt;1.1.1.1&lt;/font&gt;" style="text;html=1;align=center;verticalAlign=middle;resizable=0;points=[];autosize=1;fontSize=14;fontFamily=Manrope;fontStyle=0;fontColor=#FFFFFF;" parent="1" vertex="1">
          <mxGeometry x="404" y="362" width="40" height="29" as="geometry" />
        </mxCell>
        <mxCell id="fl8bqC6-7Vxig2I5YfBN-307" value="&lt;font style=&quot;font-size: 8px;&quot;&gt;PE2&lt;br&gt;10.0.0.2&lt;/font&gt;" style="text;html=1;align=center;verticalAlign=middle;resizable=0;points=[];autosize=1;fontSize=14;fontFamily=Manrope;fontStyle=0;fontColor=#FFFFFF;" parent="1" vertex="1">
          <mxGeometry x="659" y="236.73" width="44" height="46" as="geometry" />
        </mxCell>
        <mxCell id="fl8bqC6-7Vxig2I5YfBN-308" value="" style="edgeStyle=none;rounded=0;orthogonalLoop=1;jettySize=auto;html=1;entryX=1;entryY=1;entryDx=0;entryDy=0;endArrow=blockThin;endFill=1;strokeColor=#98A2AE;fontSize=5;fontFamily=Manrope;fontSource=https%3A%2F%2Ffonts.googleapis.com%2Fcss%3Ffamily%3DManrope;labelBackgroundColor=#4D5766;fontColor=#FFFFFF;endSize=0;startSize=0;strokeWidth=2;exitX=0;exitY=0.5;exitDx=0;exitDy=0;" parent="1" source="fl8bqC6-7Vxig2I5YfBN-315" target="fl8bqC6-7Vxig2I5YfBN-322" edge="1">
          <mxGeometry relative="1" as="geometry">
            <mxPoint x="511" y="444" as="sourcePoint" />
            <mxPoint x="475.4142135623731" y="421.414213562373" as="targetPoint" />
          </mxGeometry>
        </mxCell>
        <mxCell id="fl8bqC6-7Vxig2I5YfBN-309" value="" style="edgeStyle=none;rounded=0;orthogonalLoop=1;jettySize=auto;html=1;exitX=0;exitY=1;exitDx=0;exitDy=0;endArrow=blockThin;endFill=1;strokeColor=#98A2AE;fontSize=5;fontFamily=Manrope;fontSource=https%3A%2F%2Ffonts.googleapis.com%2Fcss%3Ffamily%3DManrope;labelBackgroundColor=#4D5766;fontColor=#FFFFFF;endSize=0;startSize=0;strokeWidth=2;entryX=1;entryY=0.5;entryDx=0;entryDy=0;" parent="1" source="fl8bqC6-7Vxig2I5YfBN-297" target="fl8bqC6-7Vxig2I5YfBN-326" edge="1">
          <mxGeometry relative="1" as="geometry">
            <mxPoint x="735" y="446" as="sourcePoint" />
            <mxPoint x="605.0000000000007" y="424.5" as="targetPoint" />
          </mxGeometry>
        </mxCell>
        <mxCell id="fl8bqC6-7Vxig2I5YfBN-310" value="" style="edgeStyle=none;rounded=0;orthogonalLoop=1;jettySize=auto;html=1;endArrow=blockThin;endFill=1;strokeColor=#98A2AE;fontSize=5;fontFamily=Manrope;fontSource=https%3A%2F%2Ffonts.googleapis.com%2Fcss%3Ffamily%3DManrope;labelBackgroundColor=#4D5766;fontColor=#FFFFFF;endSize=0;startSize=0;strokeWidth=2;exitX=1;exitY=0.5;exitDx=0;exitDy=0;entryX=0;entryY=0.5;entryDx=0;entryDy=0;" parent="1" source="fl8bqC6-7Vxig2I5YfBN-305" target="fl8bqC6-7Vxig2I5YfBN-327" edge="1">
          <mxGeometry relative="1" as="geometry">
            <mxPoint x="603" y="329.73" as="sourcePoint" />
            <mxPoint x="579" y="303.73" as="targetPoint" />
          </mxGeometry>
        </mxCell>
        <mxCell id="fl8bqC6-7Vxig2I5YfBN-311" value="1" style="ellipse;whiteSpace=wrap;html=1;aspect=fixed;fontColor=#FFFFFF;fontSize=8;strokeColor=#98A2AE;fontFamily=Manrope;fontSource=https://fonts.googleapis.com/css?family=Manrope;fillColor=#BEC8D2;strokeWidth=1;" parent="1" vertex="1">
          <mxGeometry x="536" y="264" width="10" height="10" as="geometry" />
        </mxCell>
        <mxCell id="fl8bqC6-7Vxig2I5YfBN-312" value="1" style="ellipse;whiteSpace=wrap;html=1;aspect=fixed;fontColor=#FFFFFF;fontSize=8;strokeColor=#98A2AE;fontFamily=Manrope;fontSource=https://fonts.googleapis.com/css?family=Manrope;fillColor=#BEC8D2;strokeWidth=1;" parent="1" vertex="1">
          <mxGeometry x="536" y="414.5" width="10" height="10" as="geometry" />
        </mxCell>
        <mxCell id="fl8bqC6-7Vxig2I5YfBN-313" value="3" style="ellipse;whiteSpace=wrap;html=1;aspect=fixed;fontColor=#FFFFFF;fontSize=8;strokeColor=#98A2AE;fontFamily=Manrope;fontSource=https://fonts.googleapis.com/css?family=Manrope;fillColor=#BEC8D2;strokeWidth=1;" parent="1" vertex="1">
          <mxGeometry x="566" y="442.5" width="10" height="10" as="geometry" />
        </mxCell>
        <mxCell id="fl8bqC6-7Vxig2I5YfBN-314" value="" style="shape=image;verticalLabelPosition=bottom;labelBackgroundColor=default;verticalAlign=top;aspect=fixed;imageAspect=0;image=data:image/png,iVBORw0KGgoAAAANSUhEUgAAAFgAAABYCAYAAABxlTA0AAAAAXNSR0IArs4c6QAAAARnQU1BAACxjwv8YQUAAAAJcEhZcwAAFxEAABcRAcom8z8AAAikSURBVHhe7ZwJbBRVGMe3pUBrASkUlVMpV6EUQSlCCqhEjbYiIQEUETFyVEAr3hDwquCFVE2EYoTWCBTk8KgmiBfGqDEoRbkE5JByWW9UtJTC5/d/MwPD8na7OzOvu4vvS35pd3bezPS337735r039flSskijiKZZf2nBKtGCFaMFK0YLVowWrBgtWDFasGK0YMVowYrRghUTlYIbX8IX1lv+XqwRVYKb9SFfYiYlpPYlX1IP+T6xRtQIhlxfF2rf4wbasHE7jc57lF+nyfeVgYyPS+cyncWHJI4n26+uiQrBpty0jFzavfcAIU6cOEE33jY1NMnnXkoJLfrSkFH308hx0ykzeyT5knvK961rIi7YytxuOSz3oJBrxQlm+JiHapfcqCc1aXcFVR2tFuUK5y7hMh3l+9Y1ERV8WuaeLtcKSB5Rm2QW3Ljt5VT582+izKw5xbx/J/m+dU3EBFtyOXP3VBwSYhBHzSw8Wm38tCKoZC3YjwDVwosvv04LFr0tft+6fQ/d9eBs8TsCdXLA6kILtgG5cWa1UHFK7qLlq1lKGyoqXiVe7913iHz1utJtEx8TrxGoLqQNnxZsg7tQPfuNoH0HK4UMxOIV75GvQQZLuYhKSt8V2yr2/0gNL8jmbe1ofP5Msc2K2yc/Tr6G3U8dUwu2kdCVcoffLUQgFiNzIfeci1lKOhUveUdsh+DElv2N7hZnrF3yHPQSErrxxZt3e1qwDVH/duL+6gx6lbPVl8RiIdesl88Q3KiXIdLXge6Z/jy9ULRUVB3o+548phYsoSHfbTXgrznGHSAX2wIJxnuQjP2R7Xa5QAuW0BT4DegEEyzK8P7+ZYAWHCK1CQ6EFhwiWrBiIi0YjafV4Mred4IWbMLnzhkxhdp1v150JT2T/L8XzI1mHN/8jJ1cIMpu2rqTUtsMNLLZC8laMAvmu8LSVe+LsojyjdupuVeSdRXBNO5F8Uk9xC27FetZsshkt9WFFsxAIBo3vomxSy7fZEp2k8lasEkzBrftfLfon8muqgvHgnGyZL4gliImGj3h/JPDlW4Ez5hZxMdK9Tt2qFzItKEX5y+j48ePi+OJ6qKtQ8mOBfMnnX3tOCopfYezrswTFrLcHbsqxB/lRvD6b7fR3KKl4sMKm5I36CUuO2/hSvrn3ypxPAQavgsuGmRUJbJrCIRjwb6ONPn+Z8zTex8/saxwBDdhwX/+fcQsrSY+W7eREs7pceZgUzAcC45Pp+FjptL+A5Ui27xkHx/zy683GQPu3MJLz2+H90luPZDLbKadu/fR9/wtcAyX37FzL33DDVx19TFTLdERzubcYfkUl5QJafLrkOFYMPcf66VeRkmt+otM85IkRsiVnTcI9VL7ivURWBnkCC5bD3UsN5AYe64+Zgg+8k8VDcrN4+0dpOcNimPB4NzexldYBRgnlp0zGE24DMo5AWXF7MmFNOm+p4VYBORemTPemVzgSvDZBOpVXxrlP/ScqZZEIzcod4JzuUCJ4EAD49EKrpUl2uUa1YJLucBzwWgAMOPrPx0UrWAsIjGTpj8xz1RrNGhX5nggF3gqWGRCGk3i7hsWkPgSuUuDuk22b7RgCn7ltbeEXKNaMBs03N3JyoSDZ4JNuWPueFRcKGLB4jKKwyQl3pOViRaQBPytw6LBwSPv9SZzLTwRbModnfewqdaIcXcWGNVFOP3GSIBMbcKNHG6Fcb1eVmuuBZtyb817xNRqRMhre6MJFd80V4ItubZqARGTclXhWLAkc7H0dOjN9/H2tkanvZEb+GZDdt5giJsU2bE8wGl2OxJsyrU3aFVV1TQ2f6aYfsHIlluSMQYrO3cA4rgebcRlZMfyAtxKO5IctmA+CaZX8qbMMtUagYGRXXv2U+VPv4phQ7fgQRgxHhFKJnOGQe6Wbbulx/KCy9F1QyMoO38wwhbMNw+JKb1py/Y9plo1gQ8KAz+hCkaW/XH4L7O09zH4JnTfusjPHwxHVQRncOsOV9Fmzhgr0EF/oaiUZheWUCH/LJzngMJXafN3u8TxMGwZrmBkGgID7oW4Dtk5HNIla5izZ/ccCUY/MT6dWrYfRJtMIZhewSyAaOAEnZiOYdKC5hW7nzKaNaeEj9Xc79guQUPnpH/sSDAwJWMaxZKMWFH2EdfRmcanHe4FeTTpiYwLe9JTFY4FA0syZ7K9ulhZ9rEx8h+uZC1YgpDcVZrJDTDdE8qUj4UWHAB7dbHtlOQlK9dQXH3bsxS1oQUHwZSMhg9T7zU1x+n6YfnGg9my/WVowbUAydwZb99ziFgzIRZy6DrYQ8EAQtG41c8ITy7QghWjBStGC1ZMqIIxxW7vmYQi2L9MXRFTglGn4zWWmWJC1RIWTDDKYGwahNOj8YqYEoyV6Cxq+Zsf0LSCubx/B3N1UQDBkNsgg5LP60erP/yCRk14mLeH2bNxS8wIxjh0w+60jOVacecDz3KZNLGk9EzBLBJyWebaz9aL7Yhrhk42HiT3P7cqYkkw1i9MvOcp8b4VhuR2lNx6wEnBz+OBcV9rSm7ehz75vFxsQ2CNb1rX68Jf4+uGmKoiMP3vNw+ImDBllni4/FDlL+J1wewFFJ/YidZ+fipz123YSs1a8fGQvbqKCCAYoGFjybdwfWqPaQUv0e4fjH8JNr9kFa0oWyt+R6wr30opLbPrXi6IOcHAlDzaT3JNTY34if/vY8VXG76LnFwQrYKxyj2gYBBAsj2MzI1AtWAnugR3ptJVa4ScX38/HFwwsKqL8WdKRp0b0cy1iCrBLDOj3410NXelBuSMp/jmlxkSZftamJLtDd+68i2UEokGTUZUCYYM3G3FpxtyQl00aEqeMOVJ+vSLDZSCRSvRIBdElWA3QDKGSTHm4GTCVRVnjWAAyViGKnsvUpxVgqMRLVgxWrBitGDFaMGK0YIVowUrRgtWjBasGC1YMU2zjviEZY0isn78D43o8OjRWGtOAAAAAElFTkSuQmCC;" parent="1" vertex="1">
          <mxGeometry x="516" y="424.5" width="50" height="50" as="geometry" />
        </mxCell>
        <mxCell id="fl8bqC6-7Vxig2I5YfBN-315" value="2" style="ellipse;whiteSpace=wrap;html=1;aspect=fixed;fontColor=#FFFFFF;fontSize=8;strokeColor=#98A2AE;fontFamily=Manrope;fontSource=https://fonts.googleapis.com/css?family=Manrope;fillColor=#BEC8D2;strokeWidth=1;" parent="1" vertex="1">
          <mxGeometry x="511" y="439" width="10" height="10" as="geometry" />
        </mxCell>
        <mxCell id="fl8bqC6-7Vxig2I5YfBN-316" value="" style="shape=image;verticalLabelPosition=bottom;labelBackgroundColor=default;verticalAlign=top;aspect=fixed;imageAspect=0;image=data:image/png,iVBORw0KGgoAAAANSUhEUgAAAFgAAABYCAYAAABxlTA0AAAAAXNSR0IArs4c6QAAAARnQU1BAACxjwv8YQUAAAAJcEhZcwAAFxEAABcRAcom8z8AAAikSURBVHhe7ZwJbBRVGMe3pUBrASkUlVMpV6EUQSlCCqhEjbYiIQEUETFyVEAr3hDwquCFVE2EYoTWCBTk8KgmiBfGqDEoRbkE5JByWW9UtJTC5/d/MwPD8na7OzOvu4vvS35pd3bezPS337735r039flSskijiKZZf2nBKtGCFaMFK0YLVowWrBgtWDFasGK0YMVowYrRghUTlYIbX8IX1lv+XqwRVYKb9SFfYiYlpPYlX1IP+T6xRtQIhlxfF2rf4wbasHE7jc57lF+nyfeVgYyPS+cyncWHJI4n26+uiQrBpty0jFzavfcAIU6cOEE33jY1NMnnXkoJLfrSkFH308hx0ykzeyT5knvK961rIi7YytxuOSz3oJBrxQlm+JiHapfcqCc1aXcFVR2tFuUK5y7hMh3l+9Y1ERV8WuaeLtcKSB5Rm2QW3Ljt5VT582+izKw5xbx/J/m+dU3EBFtyOXP3VBwSYhBHzSw8Wm38tCKoZC3YjwDVwosvv04LFr0tft+6fQ/d9eBs8TsCdXLA6kILtgG5cWa1UHFK7qLlq1lKGyoqXiVe7913iHz1utJtEx8TrxGoLqQNnxZsg7tQPfuNoH0HK4UMxOIV75GvQQZLuYhKSt8V2yr2/0gNL8jmbe1ofP5Msc2K2yc/Tr6G3U8dUwu2kdCVcoffLUQgFiNzIfeci1lKOhUveUdsh+DElv2N7hZnrF3yHPQSErrxxZt3e1qwDVH/duL+6gx6lbPVl8RiIdesl88Q3KiXIdLXge6Z/jy9ULRUVB3o+548phYsoSHfbTXgrznGHSAX2wIJxnuQjP2R7Xa5QAuW0BT4DegEEyzK8P7+ZYAWHCK1CQ6EFhwiWrBiIi0YjafV4Mred4IWbMLnzhkxhdp1v150JT2T/L8XzI1mHN/8jJ1cIMpu2rqTUtsMNLLZC8laMAvmu8LSVe+LsojyjdupuVeSdRXBNO5F8Uk9xC27FetZsshkt9WFFsxAIBo3vomxSy7fZEp2k8lasEkzBrftfLfon8muqgvHgnGyZL4gliImGj3h/JPDlW4Ez5hZxMdK9Tt2qFzItKEX5y+j48ePi+OJ6qKtQ8mOBfMnnX3tOCopfYezrswTFrLcHbsqxB/lRvD6b7fR3KKl4sMKm5I36CUuO2/hSvrn3ypxPAQavgsuGmRUJbJrCIRjwb6ONPn+Z8zTex8/saxwBDdhwX/+fcQsrSY+W7eREs7pceZgUzAcC45Pp+FjptL+A5Ui27xkHx/zy683GQPu3MJLz2+H90luPZDLbKadu/fR9/wtcAyX37FzL33DDVx19TFTLdERzubcYfkUl5QJafLrkOFYMPcf66VeRkmt+otM85IkRsiVnTcI9VL7ivURWBnkCC5bD3UsN5AYe64+Zgg+8k8VDcrN4+0dpOcNimPB4NzexldYBRgnlp0zGE24DMo5AWXF7MmFNOm+p4VYBORemTPemVzgSvDZBOpVXxrlP/ScqZZEIzcod4JzuUCJ4EAD49EKrpUl2uUa1YJLucBzwWgAMOPrPx0UrWAsIjGTpj8xz1RrNGhX5nggF3gqWGRCGk3i7hsWkPgSuUuDuk22b7RgCn7ltbeEXKNaMBs03N3JyoSDZ4JNuWPueFRcKGLB4jKKwyQl3pOViRaQBPytw6LBwSPv9SZzLTwRbModnfewqdaIcXcWGNVFOP3GSIBMbcKNHG6Fcb1eVmuuBZtyb817xNRqRMhre6MJFd80V4ItubZqARGTclXhWLAkc7H0dOjN9/H2tkanvZEb+GZDdt5giJsU2bE8wGl2OxJsyrU3aFVV1TQ2f6aYfsHIlluSMQYrO3cA4rgebcRlZMfyAtxKO5IctmA+CaZX8qbMMtUagYGRXXv2U+VPv4phQ7fgQRgxHhFKJnOGQe6Wbbulx/KCy9F1QyMoO38wwhbMNw+JKb1py/Y9plo1gQ8KAz+hCkaW/XH4L7O09zH4JnTfusjPHwxHVQRncOsOV9Fmzhgr0EF/oaiUZheWUCH/LJzngMJXafN3u8TxMGwZrmBkGgID7oW4Dtk5HNIla5izZ/ccCUY/MT6dWrYfRJtMIZhewSyAaOAEnZiOYdKC5hW7nzKaNaeEj9Xc79guQUPnpH/sSDAwJWMaxZKMWFH2EdfRmcanHe4FeTTpiYwLe9JTFY4FA0syZ7K9ulhZ9rEx8h+uZC1YgpDcVZrJDTDdE8qUj4UWHAB7dbHtlOQlK9dQXH3bsxS1oQUHwZSMhg9T7zU1x+n6YfnGg9my/WVowbUAydwZb99ziFgzIRZy6DrYQ8EAQtG41c8ITy7QghWjBStGC1ZMqIIxxW7vmYQi2L9MXRFTglGn4zWWmWJC1RIWTDDKYGwahNOj8YqYEoyV6Cxq+Zsf0LSCubx/B3N1UQDBkNsgg5LP60erP/yCRk14mLeH2bNxS8wIxjh0w+60jOVacecDz3KZNLGk9EzBLBJyWebaz9aL7Yhrhk42HiT3P7cqYkkw1i9MvOcp8b4VhuR2lNx6wEnBz+OBcV9rSm7ehz75vFxsQ2CNb1rX68Jf4+uGmKoiMP3vNw+ImDBllni4/FDlL+J1wewFFJ/YidZ+fipz123YSs1a8fGQvbqKCCAYoGFjybdwfWqPaQUv0e4fjH8JNr9kFa0oWyt+R6wr30opLbPrXi6IOcHAlDzaT3JNTY34if/vY8VXG76LnFwQrYKxyj2gYBBAsj2MzI1AtWAnugR3ptJVa4ScX38/HFwwsKqL8WdKRp0b0cy1iCrBLDOj3410NXelBuSMp/jmlxkSZftamJLtDd+68i2UEokGTUZUCYYM3G3FpxtyQl00aEqeMOVJ+vSLDZSCRSvRIBdElWA3QDKGSTHm4GTCVRVnjWAAyViGKnsvUpxVgqMRLVgxWrBitGDFaMGK0YIVowUrRgtWjBasGC1YMU2zjviEZY0isn78D43o8OjRWGtOAAAAAElFTkSuQmCC;" parent="1" vertex="1">
          <mxGeometry x="391" y="313.58" width="50" height="50" as="geometry" />
        </mxCell>
        <mxCell id="fl8bqC6-7Vxig2I5YfBN-317" value="1" style="ellipse;whiteSpace=wrap;html=1;aspect=fixed;fontColor=#FFFFFF;fontSize=8;strokeColor=#98A2AE;fontFamily=Manrope;fontSource=https://fonts.googleapis.com/css?family=Manrope;fillColor=#BEC8D2;strokeWidth=1;" parent="1" vertex="1">
          <mxGeometry x="434" y="273.05" width="10" height="10" as="geometry" />
        </mxCell>
        <mxCell id="fl8bqC6-7Vxig2I5YfBN-318" value="2" style="ellipse;whiteSpace=wrap;html=1;aspect=fixed;fontColor=#FFFFFF;fontSize=8;strokeColor=#98A2AE;fontFamily=Manrope;fontSource=https://fonts.googleapis.com/css?family=Manrope;fillColor=#BEC8D2;strokeWidth=1;" parent="1" vertex="1">
          <mxGeometry x="433" y="394" width="10" height="10" as="geometry" />
        </mxCell>
        <mxCell id="fl8bqC6-7Vxig2I5YfBN-319" value="&lt;font color=&quot;#1a1a1a&quot;&gt;SR-ISIS 2 - IGP Metrics&lt;/font&gt;" style="rounded=1;whiteSpace=wrap;html=1;fontSize=8;strokeWidth=1;fillColor=#d5e8d4;strokeColor=#82b366;fontFamily=Manrope;fontSource=https%3A%2F%2Ffonts.googleapis.com%2Fcss%3Ffamily%3DManrope;spacing=0;" parent="1" vertex="1">
          <mxGeometry x="380" y="517.5" width="331" height="12" as="geometry" />
        </mxCell>
        <mxCell id="fl8bqC6-7Vxig2I5YfBN-320" value="" style="edgeStyle=none;rounded=0;orthogonalLoop=1;jettySize=auto;html=1;endArrow=blockThin;endFill=1;strokeColor=#98A2AE;fontSize=5;fontFamily=Manrope;fontSource=https%3A%2F%2Ffonts.googleapis.com%2Fcss%3Ffamily%3DManrope;labelBackgroundColor=#4D5766;fontColor=#FFFFFF;endSize=0;startSize=0;strokeWidth=2;exitX=-0.008;exitY=0.626;exitDx=0;exitDy=0;entryX=1;entryY=0.5;entryDx=0;entryDy=0;exitPerimeter=0;" parent="1" source="fl8bqC6-7Vxig2I5YfBN-304" target="fl8bqC6-7Vxig2I5YfBN-323" edge="1">
          <mxGeometry relative="1" as="geometry">
            <mxPoint x="521" y="457" as="sourcePoint" />
            <mxPoint x="477" y="259.5799999999999" as="targetPoint" />
          </mxGeometry>
        </mxCell>
        <mxCell id="fl8bqC6-7Vxig2I5YfBN-321" value="" style="edgeStyle=none;rounded=0;orthogonalLoop=1;jettySize=auto;html=1;exitX=1;exitY=1;exitDx=0;exitDy=0;endArrow=blockThin;endFill=1;strokeColor=#98A2AE;fontSize=5;fontFamily=Manrope;fontSource=https%3A%2F%2Ffonts.googleapis.com%2Fcss%3Ffamily%3DManrope;labelBackgroundColor=#4D5766;fontColor=#FFFFFF;endSize=0;startSize=0;strokeWidth=2;" parent="1" source="fl8bqC6-7Vxig2I5YfBN-318" target="fl8bqC6-7Vxig2I5YfBN-322" edge="1">
          <mxGeometry relative="1" as="geometry">
            <mxPoint x="448" y="374" as="sourcePoint" />
            <mxPoint x="482" y="425" as="targetPoint" />
          </mxGeometry>
        </mxCell>
        <mxCell id="fl8bqC6-7Vxig2I5YfBN-322" value="" style="ellipse;whiteSpace=wrap;html=1;aspect=fixed;fontColor=#FFFFFF;fontSize=6;fontFamily=Manrope;fontSource=https%3A%2F%2Ffonts.googleapis.com%2Fcss%3Ffamily%3DManrope;fillColor=#BEC8D2;strokeColor=none;" parent="1" vertex="1">
          <mxGeometry x="472" y="421" width="4" height="4" as="geometry" />
        </mxCell>
        <mxCell id="fl8bqC6-7Vxig2I5YfBN-323" value="" style="ellipse;whiteSpace=wrap;html=1;aspect=fixed;fontColor=#FFFFFF;fontSize=6;fontFamily=Manrope;fontSource=https%3A%2F%2Ffonts.googleapis.com%2Fcss%3Ffamily%3DManrope;fillColor=#BEC8D2;strokeColor=none;" parent="1" vertex="1">
          <mxGeometry x="473" y="259.58" width="4" height="4" as="geometry" />
        </mxCell>
        <mxCell id="fl8bqC6-7Vxig2I5YfBN-324" value="&lt;font style=&quot;font-size: 8px;&quot;&gt;PE1&lt;br&gt;10.0.0.3&lt;/font&gt;" style="text;html=1;align=center;verticalAlign=middle;resizable=0;points=[];autosize=1;fontSize=14;fontFamily=Manrope;fontStyle=0;fontColor=#FFFFFF;" parent="1" vertex="1">
          <mxGeometry x="386" y="239.05" width="44" height="46" as="geometry" />
        </mxCell>
        <mxCell id="fl8bqC6-7Vxig2I5YfBN-325" value="" style="edgeStyle=none;rounded=0;orthogonalLoop=1;jettySize=auto;html=1;endArrow=blockThin;endFill=1;strokeColor=#98A2AE;fontSize=5;fontFamily=Manrope;fontSource=https%3A%2F%2Ffonts.googleapis.com%2Fcss%3Ffamily%3DManrope;labelBackgroundColor=#4D5766;fontColor=#FFFFFF;endSize=0;startSize=0;strokeWidth=2;exitX=1;exitY=0.5;exitDx=0;exitDy=0;entryX=0;entryY=1;entryDx=0;entryDy=0;" parent="1" source="fl8bqC6-7Vxig2I5YfBN-313" target="fl8bqC6-7Vxig2I5YfBN-326" edge="1">
          <mxGeometry relative="1" as="geometry">
            <mxPoint x="576" y="448" as="sourcePoint" />
            <mxPoint x="619" y="438" as="targetPoint" />
          </mxGeometry>
        </mxCell>
        <mxCell id="fl8bqC6-7Vxig2I5YfBN-326" value="" style="ellipse;whiteSpace=wrap;html=1;aspect=fixed;fontColor=#FFFFFF;fontSize=6;fontFamily=Manrope;fontSource=https%3A%2F%2Ffonts.googleapis.com%2Fcss%3Ffamily%3DManrope;fillColor=#BEC8D2;strokeColor=none;" parent="1" vertex="1">
          <mxGeometry x="610" y="422.5" width="4" height="4" as="geometry" />
        </mxCell>
        <mxCell id="fl8bqC6-7Vxig2I5YfBN-327" value="" style="ellipse;whiteSpace=wrap;html=1;aspect=fixed;fontColor=#FFFFFF;fontSize=6;fontFamily=Manrope;fontSource=https%3A%2F%2Ffonts.googleapis.com%2Fcss%3Ffamily%3DManrope;fillColor=#BEC8D2;strokeColor=none;" parent="1" vertex="1">
          <mxGeometry x="610" y="259.5" width="4" height="4" as="geometry" />
        </mxCell>
        <mxCell id="fl8bqC6-7Vxig2I5YfBN-328" value="&lt;font color=&quot;#1a1a1a&quot;&gt;IGP-Metric 10&lt;/font&gt;" style="rounded=1;whiteSpace=wrap;html=1;fontSize=8;strokeWidth=1;fillColor=#d5e8d4;strokeColor=#82b366;fontFamily=Manrope;fontSource=https%3A%2F%2Ffonts.googleapis.com%2Fcss%3Ffamily%3DManrope;spacing=0;" parent="1" vertex="1">
          <mxGeometry x="472" y="401" width="37" height="18.27" as="geometry" />
        </mxCell>
        <mxCell id="fl8bqC6-7Vxig2I5YfBN-329" value="&lt;font color=&quot;#1a1a1a&quot;&gt;IGP-Metric 10&lt;/font&gt;" style="rounded=1;whiteSpace=wrap;html=1;fontSize=8;strokeWidth=1;fillColor=#d5e8d4;strokeColor=#82b366;fontFamily=Manrope;fontSource=https%3A%2F%2Ffonts.googleapis.com%2Fcss%3Ffamily%3DManrope;spacing=0;" parent="1" vertex="1">
          <mxGeometry x="584" y="396.23" width="37" height="18.27" as="geometry" />
        </mxCell>
        <mxCell id="fl8bqC6-7Vxig2I5YfBN-330" value="&lt;font color=&quot;#1a1a1a&quot;&gt;IGP-Metric 1000&lt;/font&gt;" style="rounded=1;whiteSpace=wrap;html=1;fontSize=8;strokeWidth=1;fillColor=#FF6666;strokeColor=#FF6666;fontFamily=Manrope;fontSource=https%3A%2F%2Ffonts.googleapis.com%2Fcss%3Ffamily%3DManrope;spacing=0;" parent="1" vertex="1">
          <mxGeometry x="476" y="266.78" width="37" height="18.27" as="geometry" />
        </mxCell>
        <mxCell id="fl8bqC6-7Vxig2I5YfBN-331" value="&lt;font color=&quot;#1a1a1a&quot;&gt;IGP-Metric 100&lt;/font&gt;" style="rounded=1;whiteSpace=wrap;html=1;fontSize=8;strokeWidth=1;fillColor=#FFB366;strokeColor=#FFB366;fontFamily=Manrope;fontSource=https%3A%2F%2Ffonts.googleapis.com%2Fcss%3Ffamily%3DManrope;spacing=0;" parent="1" vertex="1">
          <mxGeometry x="547" y="334.87" width="37" height="18.27" as="geometry" />
        </mxCell>
        <mxCell id="fl8bqC6-7Vxig2I5YfBN-332" value="&lt;font color=&quot;#1a1a1a&quot;&gt;IGP-Metric 1000&lt;/font&gt;" style="rounded=1;whiteSpace=wrap;html=1;fontSize=8;strokeWidth=1;fillColor=#FF6666;strokeColor=#FF6666;fontFamily=Manrope;fontSource=https%3A%2F%2Ffonts.googleapis.com%2Fcss%3Ffamily%3DManrope;spacing=0;" parent="1" vertex="1">
          <mxGeometry x="577" y="270.73" width="37" height="18.27" as="geometry" />
        </mxCell>
        <mxCell id="fl8bqC6-7Vxig2I5YfBN-334" value="" style="rounded=0;whiteSpace=wrap;html=1;" parent="1" vertex="1">
          <mxGeometry x="999" y="283.72999999999996" width="60" height="111" as="geometry" />
        </mxCell>
        <mxCell id="fl8bqC6-7Vxig2I5YfBN-335" value="" style="rounded=0;whiteSpace=wrap;html=1;" parent="1" vertex="1">
          <mxGeometry x="746" y="283.5" width="60" height="111" as="geometry" />
        </mxCell>
        <mxCell id="fl8bqC6-7Vxig2I5YfBN-336" style="edgeStyle=none;rounded=0;orthogonalLoop=1;jettySize=auto;html=1;entryX=0;entryY=0.5;entryDx=0;entryDy=0;endArrow=none;endFill=0;strokeColor=#98A2AE;startArrow=blockThin;startFill=1;fontSize=5;fontFamily=Manrope;fontSource=https%3A%2F%2Ffonts.googleapis.com%2Fcss%3Ffamily%3DManrope;labelBackgroundColor=#4D5766;fontColor=#FFFFFF;endSize=0;startSize=0;strokeWidth=2;" parent="1" source="fl8bqC6-7Vxig2I5YfBN-369" target="fl8bqC6-7Vxig2I5YfBN-340" edge="1">
          <mxGeometry relative="1" as="geometry">
            <mxPoint x="971" y="248" as="sourcePoint" />
          </mxGeometry>
        </mxCell>
        <mxCell id="fl8bqC6-7Vxig2I5YfBN-337" value="" style="edgeStyle=none;rounded=0;orthogonalLoop=1;jettySize=auto;html=1;exitX=1.031;exitY=0.321;exitDx=0;exitDy=0;entryX=0;entryY=1;entryDx=0;entryDy=0;endArrow=blockThin;endFill=1;strokeColor=#98A2AE;fontSize=5;fontFamily=Manrope;fontSource=https%3A%2F%2Ffonts.googleapis.com%2Fcss%3Ffamily%3DManrope;labelBackgroundColor=#4D5766;fontColor=#FFFFFF;endSize=0;startSize=0;strokeWidth=2;exitPerimeter=0;" parent="1" source="fl8bqC6-7Vxig2I5YfBN-359" target="fl8bqC6-7Vxig2I5YfBN-365" edge="1">
          <mxGeometry relative="1" as="geometry">
            <mxPoint x="823.9999999999714" y="317.43" as="sourcePoint" />
            <mxPoint x="883.4999999999125" y="317.43" as="targetPoint" />
          </mxGeometry>
        </mxCell>
        <mxCell id="fl8bqC6-7Vxig2I5YfBN-338" value="" style="shape=image;verticalLabelPosition=bottom;labelBackgroundColor=default;verticalAlign=top;aspect=fixed;imageAspect=0;image=data:image/png,iVBORw0KGgoAAAANSUhEUgAAAFgAAABYCAYAAABxlTA0AAAAAXNSR0IArs4c6QAAAARnQU1BAACxjwv8YQUAAAAJcEhZcwAAFxEAABcRAcom8z8AAAikSURBVHhe7ZwJbBRVGMe3pUBrASkUlVMpV6EUQSlCCqhEjbYiIQEUETFyVEAr3hDwquCFVE2EYoTWCBTk8KgmiBfGqDEoRbkE5JByWW9UtJTC5/d/MwPD8na7OzOvu4vvS35pd3bezPS337735r039flSskijiKZZf2nBKtGCFaMFK0YLVowWrBgtWDFasGK0YMVowYrRghUTlYIbX8IX1lv+XqwRVYKb9SFfYiYlpPYlX1IP+T6xRtQIhlxfF2rf4wbasHE7jc57lF+nyfeVgYyPS+cyncWHJI4n26+uiQrBpty0jFzavfcAIU6cOEE33jY1NMnnXkoJLfrSkFH308hx0ykzeyT5knvK961rIi7YytxuOSz3oJBrxQlm+JiHapfcqCc1aXcFVR2tFuUK5y7hMh3l+9Y1ERV8WuaeLtcKSB5Rm2QW3Ljt5VT582+izKw5xbx/J/m+dU3EBFtyOXP3VBwSYhBHzSw8Wm38tCKoZC3YjwDVwosvv04LFr0tft+6fQ/d9eBs8TsCdXLA6kILtgG5cWa1UHFK7qLlq1lKGyoqXiVe7913iHz1utJtEx8TrxGoLqQNnxZsg7tQPfuNoH0HK4UMxOIV75GvQQZLuYhKSt8V2yr2/0gNL8jmbe1ofP5Msc2K2yc/Tr6G3U8dUwu2kdCVcoffLUQgFiNzIfeci1lKOhUveUdsh+DElv2N7hZnrF3yHPQSErrxxZt3e1qwDVH/duL+6gx6lbPVl8RiIdesl88Q3KiXIdLXge6Z/jy9ULRUVB3o+548phYsoSHfbTXgrznGHSAX2wIJxnuQjP2R7Xa5QAuW0BT4DegEEyzK8P7+ZYAWHCK1CQ6EFhwiWrBiIi0YjafV4Mred4IWbMLnzhkxhdp1v150JT2T/L8XzI1mHN/8jJ1cIMpu2rqTUtsMNLLZC8laMAvmu8LSVe+LsojyjdupuVeSdRXBNO5F8Uk9xC27FetZsshkt9WFFsxAIBo3vomxSy7fZEp2k8lasEkzBrftfLfon8muqgvHgnGyZL4gliImGj3h/JPDlW4Ez5hZxMdK9Tt2qFzItKEX5y+j48ePi+OJ6qKtQ8mOBfMnnX3tOCopfYezrswTFrLcHbsqxB/lRvD6b7fR3KKl4sMKm5I36CUuO2/hSvrn3ypxPAQavgsuGmRUJbJrCIRjwb6ONPn+Z8zTex8/saxwBDdhwX/+fcQsrSY+W7eREs7pceZgUzAcC45Pp+FjptL+A5Ui27xkHx/zy683GQPu3MJLz2+H90luPZDLbKadu/fR9/wtcAyX37FzL33DDVx19TFTLdERzubcYfkUl5QJafLrkOFYMPcf66VeRkmt+otM85IkRsiVnTcI9VL7ivURWBnkCC5bD3UsN5AYe64+Zgg+8k8VDcrN4+0dpOcNimPB4NzexldYBRgnlp0zGE24DMo5AWXF7MmFNOm+p4VYBORemTPemVzgSvDZBOpVXxrlP/ScqZZEIzcod4JzuUCJ4EAD49EKrpUl2uUa1YJLucBzwWgAMOPrPx0UrWAsIjGTpj8xz1RrNGhX5nggF3gqWGRCGk3i7hsWkPgSuUuDuk22b7RgCn7ltbeEXKNaMBs03N3JyoSDZ4JNuWPueFRcKGLB4jKKwyQl3pOViRaQBPytw6LBwSPv9SZzLTwRbModnfewqdaIcXcWGNVFOP3GSIBMbcKNHG6Fcb1eVmuuBZtyb817xNRqRMhre6MJFd80V4ItubZqARGTclXhWLAkc7H0dOjN9/H2tkanvZEb+GZDdt5giJsU2bE8wGl2OxJsyrU3aFVV1TQ2f6aYfsHIlluSMQYrO3cA4rgebcRlZMfyAtxKO5IctmA+CaZX8qbMMtUagYGRXXv2U+VPv4phQ7fgQRgxHhFKJnOGQe6Wbbulx/KCy9F1QyMoO38wwhbMNw+JKb1py/Y9plo1gQ8KAz+hCkaW/XH4L7O09zH4JnTfusjPHwxHVQRncOsOV9Fmzhgr0EF/oaiUZheWUCH/LJzngMJXafN3u8TxMGwZrmBkGgID7oW4Dtk5HNIla5izZ/ccCUY/MT6dWrYfRJtMIZhewSyAaOAEnZiOYdKC5hW7nzKaNaeEj9Xc79guQUPnpH/sSDAwJWMaxZKMWFH2EdfRmcanHe4FeTTpiYwLe9JTFY4FA0syZ7K9ulhZ9rEx8h+uZC1YgpDcVZrJDTDdE8qUj4UWHAB7dbHtlOQlK9dQXH3bsxS1oQUHwZSMhg9T7zU1x+n6YfnGg9my/WVowbUAydwZb99ziFgzIRZy6DrYQ8EAQtG41c8ITy7QghWjBStGC1ZMqIIxxW7vmYQi2L9MXRFTglGn4zWWmWJC1RIWTDDKYGwahNOj8YqYEoyV6Cxq+Zsf0LSCubx/B3N1UQDBkNsgg5LP60erP/yCRk14mLeH2bNxS8wIxjh0w+60jOVacecDz3KZNLGk9EzBLBJyWebaz9aL7Yhrhk42HiT3P7cqYkkw1i9MvOcp8b4VhuR2lNx6wEnBz+OBcV9rSm7ehz75vFxsQ2CNb1rX68Jf4+uGmKoiMP3vNw+ImDBllni4/FDlL+J1wewFFJ/YidZ+fipz123YSs1a8fGQvbqKCCAYoGFjybdwfWqPaQUv0e4fjH8JNr9kFa0oWyt+R6wr30opLbPrXi6IOcHAlDzaT3JNTY34if/vY8VXG76LnFwQrYKxyj2gYBBAsj2MzI1AtWAnugR3ptJVa4ScX38/HFwwsKqL8WdKRp0b0cy1iCrBLDOj3410NXelBuSMp/jmlxkSZftamJLtDd+68i2UEokGTUZUCYYM3G3FpxtyQl00aEqeMOVJ+vSLDZSCRSvRIBdElWA3QDKGSTHm4GTCVRVnjWAAyViGKnsvUpxVgqMRLVgxWrBitGDFaMGK0YIVowUrRgtWjBasGC1YMU2zjviEZY0isn78D43o8OjRWGtOAAAAAElFTkSuQmCC;" parent="1" vertex="1">
          <mxGeometry x="1006" y="312.65" width="50" height="50" as="geometry" />
        </mxCell>
        <mxCell id="fl8bqC6-7Vxig2I5YfBN-339" value="2" style="ellipse;whiteSpace=wrap;html=1;aspect=fixed;fontColor=#FFFFFF;fontSize=8;strokeColor=#98A2AE;fontFamily=Manrope;fontSource=https://fonts.googleapis.com/css?family=Manrope;fillColor=#BEC8D2;strokeWidth=1;" parent="1" vertex="1">
          <mxGeometry x="1006" y="393.73" width="10" height="10" as="geometry" />
        </mxCell>
        <mxCell id="fl8bqC6-7Vxig2I5YfBN-340" value="1" style="ellipse;whiteSpace=wrap;html=1;aspect=fixed;fontColor=#FFFFFF;fontSize=8;strokeColor=#98A2AE;fontFamily=Manrope;fontSource=https://fonts.googleapis.com/css?family=Manrope;fillColor=#BEC8D2;strokeWidth=1;" parent="1" vertex="1">
          <mxGeometry x="1004" y="273" width="10" height="10" as="geometry" />
        </mxCell>
        <mxCell id="fl8bqC6-7Vxig2I5YfBN-341" style="edgeStyle=none;rounded=0;orthogonalLoop=1;jettySize=auto;html=1;entryX=0.5;entryY=1;entryDx=0;entryDy=0;endArrow=none;endFill=0;strokeColor=#98A2AE;startArrow=blockThin;startFill=1;fontSize=5;fontFamily=Manrope;fontSource=https%3A%2F%2Ffonts.googleapis.com%2Fcss%3Ffamily%3DManrope;labelBackgroundColor=#4D5766;fontColor=#FFFFFF;endSize=0;startSize=0;strokeWidth=2;exitX=0.5;exitY=0;exitDx=0;exitDy=0;" parent="1" source="fl8bqC6-7Vxig2I5YfBN-343" target="fl8bqC6-7Vxig2I5YfBN-353" edge="1">
          <mxGeometry relative="1" as="geometry">
            <mxPoint x="902" y="383" as="sourcePoint" />
          </mxGeometry>
        </mxCell>
        <mxCell id="fl8bqC6-7Vxig2I5YfBN-342" value="&lt;font style=&quot;font-size: 8px;&quot;&gt;P4&lt;br&gt;4.4.4.4&lt;/font&gt;" style="text;html=1;align=center;verticalAlign=middle;resizable=0;points=[];autosize=1;fontSize=14;fontFamily=Manrope;fontStyle=0;fontColor=#FFFFFF;" parent="1" vertex="1">
          <mxGeometry x="876" y="471.5" width="40" height="46" as="geometry" />
        </mxCell>
        <mxCell id="fl8bqC6-7Vxig2I5YfBN-343" value="" style="ellipse;whiteSpace=wrap;html=1;aspect=fixed;fontColor=#FFFFFF;fontSize=6;fontFamily=Manrope;fontSource=https%3A%2F%2Ffonts.googleapis.com%2Fcss%3Ffamily%3DManrope;fillColor=#BEC8D2;strokeColor=none;" parent="1" vertex="1">
          <mxGeometry x="899" y="342" width="4" height="4" as="geometry" />
        </mxCell>
        <mxCell id="fl8bqC6-7Vxig2I5YfBN-344" value="" style="edgeStyle=none;rounded=0;orthogonalLoop=1;jettySize=auto;html=1;exitX=0.5;exitY=0;exitDx=0;exitDy=0;endArrow=blockThin;endFill=1;strokeColor=#98A2AE;fontSize=5;fontFamily=Manrope;fontSource=https%3A%2F%2Ffonts.googleapis.com%2Fcss%3Ffamily%3DManrope;labelBackgroundColor=#4D5766;fontColor=#FFFFFF;endSize=0;startSize=0;strokeWidth=2;entryX=0.5;entryY=1;entryDx=0;entryDy=0;" parent="1" source="fl8bqC6-7Vxig2I5YfBN-354" target="fl8bqC6-7Vxig2I5YfBN-343" edge="1">
          <mxGeometry relative="1" as="geometry">
            <mxPoint x="894" y="518" as="sourcePoint" />
            <mxPoint x="898" y="388" as="targetPoint" />
          </mxGeometry>
        </mxCell>
        <mxCell id="fl8bqC6-7Vxig2I5YfBN-345" value="" style="shape=image;verticalLabelPosition=bottom;labelBackgroundColor=default;verticalAlign=top;aspect=fixed;imageAspect=0;image=data:image/png,iVBORw0KGgoAAAANSUhEUgAAAFgAAABYCAYAAABxlTA0AAAAAXNSR0IArs4c6QAAAARnQU1BAACxjwv8YQUAAAAJcEhZcwAAFxEAABcRAcom8z8AAAikSURBVHhe7ZwJbBRVGMe3pUBrASkUlVMpV6EUQSlCCqhEjbYiIQEUETFyVEAr3hDwquCFVE2EYoTWCBTk8KgmiBfGqDEoRbkE5JByWW9UtJTC5/d/MwPD8na7OzOvu4vvS35pd3bezPS337735r039flSskijiKZZf2nBKtGCFaMFK0YLVowWrBgtWDFasGK0YMVowYrRghUTlYIbX8IX1lv+XqwRVYKb9SFfYiYlpPYlX1IP+T6xRtQIhlxfF2rf4wbasHE7jc57lF+nyfeVgYyPS+cyncWHJI4n26+uiQrBpty0jFzavfcAIU6cOEE33jY1NMnnXkoJLfrSkFH308hx0ykzeyT5knvK961rIi7YytxuOSz3oJBrxQlm+JiHapfcqCc1aXcFVR2tFuUK5y7hMh3l+9Y1ERV8WuaeLtcKSB5Rm2QW3Ljt5VT582+izKw5xbx/J/m+dU3EBFtyOXP3VBwSYhBHzSw8Wm38tCKoZC3YjwDVwosvv04LFr0tft+6fQ/d9eBs8TsCdXLA6kILtgG5cWa1UHFK7qLlq1lKGyoqXiVe7913iHz1utJtEx8TrxGoLqQNnxZsg7tQPfuNoH0HK4UMxOIV75GvQQZLuYhKSt8V2yr2/0gNL8jmbe1ofP5Msc2K2yc/Tr6G3U8dUwu2kdCVcoffLUQgFiNzIfeci1lKOhUveUdsh+DElv2N7hZnrF3yHPQSErrxxZt3e1qwDVH/duL+6gx6lbPVl8RiIdesl88Q3KiXIdLXge6Z/jy9ULRUVB3o+548phYsoSHfbTXgrznGHSAX2wIJxnuQjP2R7Xa5QAuW0BT4DegEEyzK8P7+ZYAWHCK1CQ6EFhwiWrBiIi0YjafV4Mred4IWbMLnzhkxhdp1v150JT2T/L8XzI1mHN/8jJ1cIMpu2rqTUtsMNLLZC8laMAvmu8LSVe+LsojyjdupuVeSdRXBNO5F8Uk9xC27FetZsshkt9WFFsxAIBo3vomxSy7fZEp2k8lasEkzBrftfLfon8muqgvHgnGyZL4gliImGj3h/JPDlW4Ez5hZxMdK9Tt2qFzItKEX5y+j48ePi+OJ6qKtQ8mOBfMnnX3tOCopfYezrswTFrLcHbsqxB/lRvD6b7fR3KKl4sMKm5I36CUuO2/hSvrn3ypxPAQavgsuGmRUJbJrCIRjwb6ONPn+Z8zTex8/saxwBDdhwX/+fcQsrSY+W7eREs7pceZgUzAcC45Pp+FjptL+A5Ui27xkHx/zy683GQPu3MJLz2+H90luPZDLbKadu/fR9/wtcAyX37FzL33DDVx19TFTLdERzubcYfkUl5QJafLrkOFYMPcf66VeRkmt+otM85IkRsiVnTcI9VL7ivURWBnkCC5bD3UsN5AYe64+Zgg+8k8VDcrN4+0dpOcNimPB4NzexldYBRgnlp0zGE24DMo5AWXF7MmFNOm+p4VYBORemTPemVzgSvDZBOpVXxrlP/ScqZZEIzcod4JzuUCJ4EAD49EKrpUl2uUa1YJLucBzwWgAMOPrPx0UrWAsIjGTpj8xz1RrNGhX5nggF3gqWGRCGk3i7hsWkPgSuUuDuk22b7RgCn7ltbeEXKNaMBs03N3JyoSDZ4JNuWPueFRcKGLB4jKKwyQl3pOViRaQBPytw6LBwSPv9SZzLTwRbModnfewqdaIcXcWGNVFOP3GSIBMbcKNHG6Fcb1eVmuuBZtyb817xNRqRMhre6MJFd80V4ItubZqARGTclXhWLAkc7H0dOjN9/H2tkanvZEb+GZDdt5giJsU2bE8wGl2OxJsyrU3aFVV1TQ2f6aYfsHIlluSMQYrO3cA4rgebcRlZMfyAtxKO5IctmA+CaZX8qbMMtUagYGRXXv2U+VPv4phQ7fgQRgxHhFKJnOGQe6Wbbulx/KCy9F1QyMoO38wwhbMNw+JKb1py/Y9plo1gQ8KAz+hCkaW/XH4L7O09zH4JnTfusjPHwxHVQRncOsOV9Fmzhgr0EF/oaiUZheWUCH/LJzngMJXafN3u8TxMGwZrmBkGgID7oW4Dtk5HNIla5izZ/ccCUY/MT6dWrYfRJtMIZhewSyAaOAEnZiOYdKC5hW7nzKaNaeEj9Xc79guQUPnpH/sSDAwJWMaxZKMWFH2EdfRmcanHe4FeTTpiYwLe9JTFY4FA0syZ7K9ulhZ9rEx8h+uZC1YgpDcVZrJDTDdE8qUj4UWHAB7dbHtlOQlK9dQXH3bsxS1oQUHwZSMhg9T7zU1x+n6YfnGg9my/WVowbUAydwZb99ziFgzIRZy6DrYQ8EAQtG41c8ITy7QghWjBStGC1ZMqIIxxW7vmYQi2L9MXRFTglGn4zWWmWJC1RIWTDDKYGwahNOj8YqYEoyV6Cxq+Zsf0LSCubx/B3N1UQDBkNsgg5LP60erP/yCRk14mLeH2bNxS8wIxjh0w+60jOVacecDz3KZNLGk9EzBLBJyWebaz9aL7Yhrhk42HiT3P7cqYkkw1i9MvOcp8b4VhuR2lNx6wEnBz+OBcV9rSm7ehz75vFxsQ2CNb1rX68Jf4+uGmKoiMP3vNw+ImDBllni4/FDlL+J1wewFFJ/YidZ+fipz123YSs1a8fGQvbqKCCAYoGFjybdwfWqPaQUv0e4fjH8JNr9kFa0oWyt+R6wr30opLbPrXi6IOcHAlDzaT3JNTY34if/vY8VXG76LnFwQrYKxyj2gYBBAsj2MzI1AtWAnugR3ptJVa4ScX38/HFwwsKqL8WdKRp0b0cy1iCrBLDOj3410NXelBuSMp/jmlxkSZftamJLtDd+68i2UEokGTUZUCYYM3G3FpxtyQl00aEqeMOVJ+vSLDZSCRSvRIBdElWA3QDKGSTHm4GTCVRVnjWAAyViGKnsvUpxVgqMRLVgxWrBitGDFaMGK0YIVowUrRgtWjBasGC1YMU2zjviEZY0isn78D43o8OjRWGtOAAAAAElFTkSuQmCC;" parent="1" vertex="1">
          <mxGeometry x="876" y="214" width="50" height="50" as="geometry" />
        </mxCell>
        <mxCell id="fl8bqC6-7Vxig2I5YfBN-346" value="2" style="ellipse;whiteSpace=wrap;html=1;aspect=fixed;fontColor=#FFFFFF;fontSize=8;strokeColor=#98A2AE;fontFamily=Manrope;fontSource=https://fonts.googleapis.com/css?family=Manrope;fillColor=#BEC8D2;strokeWidth=1;" parent="1" vertex="1">
          <mxGeometry x="866" y="241.5" width="10" height="10" as="geometry" />
        </mxCell>
        <mxCell id="fl8bqC6-7Vxig2I5YfBN-347" value="3" style="ellipse;whiteSpace=wrap;html=1;aspect=fixed;fontColor=#FFFFFF;fontSize=8;strokeColor=#98A2AE;fontFamily=Manrope;fontSource=https://fonts.googleapis.com/css?family=Manrope;fillColor=#BEC8D2;strokeWidth=1;" parent="1" vertex="1">
          <mxGeometry x="926" y="241.5" width="10" height="10" as="geometry" />
        </mxCell>
        <mxCell id="fl8bqC6-7Vxig2I5YfBN-348" value="&lt;font style=&quot;font-size: 8px;&quot;&gt;1.1.1.1&lt;/font&gt;" style="text;html=1;align=center;verticalAlign=middle;resizable=0;points=[];autosize=1;fontSize=14;fontFamily=Manrope;fontStyle=0;fontColor=#FFFFFF;" parent="1" vertex="1">
          <mxGeometry x="764" y="362" width="40" height="29" as="geometry" />
        </mxCell>
        <mxCell id="fl8bqC6-7Vxig2I5YfBN-349" value="&lt;font style=&quot;font-size: 8px;&quot;&gt;PE2&lt;br&gt;10.0.0.2&lt;/font&gt;" style="text;html=1;align=center;verticalAlign=middle;resizable=0;points=[];autosize=1;fontSize=14;fontFamily=Manrope;fontStyle=0;fontColor=#FFFFFF;" parent="1" vertex="1">
          <mxGeometry x="1019" y="236.73" width="44" height="46" as="geometry" />
        </mxCell>
        <mxCell id="fl8bqC6-7Vxig2I5YfBN-350" value="" style="edgeStyle=none;rounded=0;orthogonalLoop=1;jettySize=auto;html=1;entryX=1;entryY=1;entryDx=0;entryDy=0;endArrow=blockThin;endFill=1;strokeColor=#98A2AE;fontSize=5;fontFamily=Manrope;fontSource=https%3A%2F%2Ffonts.googleapis.com%2Fcss%3Ffamily%3DManrope;labelBackgroundColor=#4D5766;fontColor=#FFFFFF;endSize=0;startSize=0;strokeWidth=2;exitX=0;exitY=0.5;exitDx=0;exitDy=0;" parent="1" source="fl8bqC6-7Vxig2I5YfBN-357" target="fl8bqC6-7Vxig2I5YfBN-364" edge="1">
          <mxGeometry relative="1" as="geometry">
            <mxPoint x="871" y="444" as="sourcePoint" />
            <mxPoint x="835.4142135623731" y="421.414213562373" as="targetPoint" />
          </mxGeometry>
        </mxCell>
        <mxCell id="fl8bqC6-7Vxig2I5YfBN-351" value="" style="edgeStyle=none;rounded=0;orthogonalLoop=1;jettySize=auto;html=1;exitX=0;exitY=1;exitDx=0;exitDy=0;endArrow=blockThin;endFill=1;strokeColor=#98A2AE;fontSize=5;fontFamily=Manrope;fontSource=https%3A%2F%2Ffonts.googleapis.com%2Fcss%3Ffamily%3DManrope;labelBackgroundColor=#4D5766;fontColor=#FFFFFF;endSize=0;startSize=0;strokeWidth=2;entryX=1;entryY=0.5;entryDx=0;entryDy=0;" parent="1" source="fl8bqC6-7Vxig2I5YfBN-339" target="fl8bqC6-7Vxig2I5YfBN-368" edge="1">
          <mxGeometry relative="1" as="geometry">
            <mxPoint x="1095" y="446" as="sourcePoint" />
            <mxPoint x="965.0000000000007" y="424.5" as="targetPoint" />
          </mxGeometry>
        </mxCell>
        <mxCell id="fl8bqC6-7Vxig2I5YfBN-352" value="" style="edgeStyle=none;rounded=0;orthogonalLoop=1;jettySize=auto;html=1;endArrow=blockThin;endFill=1;strokeColor=#98A2AE;fontSize=5;fontFamily=Manrope;fontSource=https%3A%2F%2Ffonts.googleapis.com%2Fcss%3Ffamily%3DManrope;labelBackgroundColor=#4D5766;fontColor=#FFFFFF;endSize=0;startSize=0;strokeWidth=2;exitX=1;exitY=0.5;exitDx=0;exitDy=0;entryX=0;entryY=0.5;entryDx=0;entryDy=0;" parent="1" source="fl8bqC6-7Vxig2I5YfBN-347" target="fl8bqC6-7Vxig2I5YfBN-369" edge="1">
          <mxGeometry relative="1" as="geometry">
            <mxPoint x="963" y="329.73" as="sourcePoint" />
            <mxPoint x="939" y="303.73" as="targetPoint" />
          </mxGeometry>
        </mxCell>
        <mxCell id="fl8bqC6-7Vxig2I5YfBN-353" value="1" style="ellipse;whiteSpace=wrap;html=1;aspect=fixed;fontColor=#FFFFFF;fontSize=8;strokeColor=#98A2AE;fontFamily=Manrope;fontSource=https://fonts.googleapis.com/css?family=Manrope;fillColor=#BEC8D2;strokeWidth=1;" parent="1" vertex="1">
          <mxGeometry x="896" y="264" width="10" height="10" as="geometry" />
        </mxCell>
        <mxCell id="fl8bqC6-7Vxig2I5YfBN-354" value="1" style="ellipse;whiteSpace=wrap;html=1;aspect=fixed;fontColor=#FFFFFF;fontSize=8;strokeColor=#98A2AE;fontFamily=Manrope;fontSource=https://fonts.googleapis.com/css?family=Manrope;fillColor=#BEC8D2;strokeWidth=1;" parent="1" vertex="1">
          <mxGeometry x="896" y="414.5" width="10" height="10" as="geometry" />
        </mxCell>
        <mxCell id="fl8bqC6-7Vxig2I5YfBN-355" value="3" style="ellipse;whiteSpace=wrap;html=1;aspect=fixed;fontColor=#FFFFFF;fontSize=8;strokeColor=#98A2AE;fontFamily=Manrope;fontSource=https://fonts.googleapis.com/css?family=Manrope;fillColor=#BEC8D2;strokeWidth=1;" parent="1" vertex="1">
          <mxGeometry x="926" y="442.5" width="10" height="10" as="geometry" />
        </mxCell>
        <mxCell id="fl8bqC6-7Vxig2I5YfBN-356" value="" style="shape=image;verticalLabelPosition=bottom;labelBackgroundColor=default;verticalAlign=top;aspect=fixed;imageAspect=0;image=data:image/png,iVBORw0KGgoAAAANSUhEUgAAAFgAAABYCAYAAABxlTA0AAAAAXNSR0IArs4c6QAAAARnQU1BAACxjwv8YQUAAAAJcEhZcwAAFxEAABcRAcom8z8AAAikSURBVHhe7ZwJbBRVGMe3pUBrASkUlVMpV6EUQSlCCqhEjbYiIQEUETFyVEAr3hDwquCFVE2EYoTWCBTk8KgmiBfGqDEoRbkE5JByWW9UtJTC5/d/MwPD8na7OzOvu4vvS35pd3bezPS337735r039flSskijiKZZf2nBKtGCFaMFK0YLVowWrBgtWDFasGK0YMVowYrRghUTlYIbX8IX1lv+XqwRVYKb9SFfYiYlpPYlX1IP+T6xRtQIhlxfF2rf4wbasHE7jc57lF+nyfeVgYyPS+cyncWHJI4n26+uiQrBpty0jFzavfcAIU6cOEE33jY1NMnnXkoJLfrSkFH308hx0ykzeyT5knvK961rIi7YytxuOSz3oJBrxQlm+JiHapfcqCc1aXcFVR2tFuUK5y7hMh3l+9Y1ERV8WuaeLtcKSB5Rm2QW3Ljt5VT582+izKw5xbx/J/m+dU3EBFtyOXP3VBwSYhBHzSw8Wm38tCKoZC3YjwDVwosvv04LFr0tft+6fQ/d9eBs8TsCdXLA6kILtgG5cWa1UHFK7qLlq1lKGyoqXiVe7913iHz1utJtEx8TrxGoLqQNnxZsg7tQPfuNoH0HK4UMxOIV75GvQQZLuYhKSt8V2yr2/0gNL8jmbe1ofP5Msc2K2yc/Tr6G3U8dUwu2kdCVcoffLUQgFiNzIfeci1lKOhUveUdsh+DElv2N7hZnrF3yHPQSErrxxZt3e1qwDVH/duL+6gx6lbPVl8RiIdesl88Q3KiXIdLXge6Z/jy9ULRUVB3o+548phYsoSHfbTXgrznGHSAX2wIJxnuQjP2R7Xa5QAuW0BT4DegEEyzK8P7+ZYAWHCK1CQ6EFhwiWrBiIi0YjafV4Mred4IWbMLnzhkxhdp1v150JT2T/L8XzI1mHN/8jJ1cIMpu2rqTUtsMNLLZC8laMAvmu8LSVe+LsojyjdupuVeSdRXBNO5F8Uk9xC27FetZsshkt9WFFsxAIBo3vomxSy7fZEp2k8lasEkzBrftfLfon8muqgvHgnGyZL4gliImGj3h/JPDlW4Ez5hZxMdK9Tt2qFzItKEX5y+j48ePi+OJ6qKtQ8mOBfMnnX3tOCopfYezrswTFrLcHbsqxB/lRvD6b7fR3KKl4sMKm5I36CUuO2/hSvrn3ypxPAQavgsuGmRUJbJrCIRjwb6ONPn+Z8zTex8/saxwBDdhwX/+fcQsrSY+W7eREs7pceZgUzAcC45Pp+FjptL+A5Ui27xkHx/zy683GQPu3MJLz2+H90luPZDLbKadu/fR9/wtcAyX37FzL33DDVx19TFTLdERzubcYfkUl5QJafLrkOFYMPcf66VeRkmt+otM85IkRsiVnTcI9VL7ivURWBnkCC5bD3UsN5AYe64+Zgg+8k8VDcrN4+0dpOcNimPB4NzexldYBRgnlp0zGE24DMo5AWXF7MmFNOm+p4VYBORemTPemVzgSvDZBOpVXxrlP/ScqZZEIzcod4JzuUCJ4EAD49EKrpUl2uUa1YJLucBzwWgAMOPrPx0UrWAsIjGTpj8xz1RrNGhX5nggF3gqWGRCGk3i7hsWkPgSuUuDuk22b7RgCn7ltbeEXKNaMBs03N3JyoSDZ4JNuWPueFRcKGLB4jKKwyQl3pOViRaQBPytw6LBwSPv9SZzLTwRbModnfewqdaIcXcWGNVFOP3GSIBMbcKNHG6Fcb1eVmuuBZtyb817xNRqRMhre6MJFd80V4ItubZqARGTclXhWLAkc7H0dOjN9/H2tkanvZEb+GZDdt5giJsU2bE8wGl2OxJsyrU3aFVV1TQ2f6aYfsHIlluSMQYrO3cA4rgebcRlZMfyAtxKO5IctmA+CaZX8qbMMtUagYGRXXv2U+VPv4phQ7fgQRgxHhFKJnOGQe6Wbbulx/KCy9F1QyMoO38wwhbMNw+JKb1py/Y9plo1gQ8KAz+hCkaW/XH4L7O09zH4JnTfusjPHwxHVQRncOsOV9Fmzhgr0EF/oaiUZheWUCH/LJzngMJXafN3u8TxMGwZrmBkGgID7oW4Dtk5HNIla5izZ/ccCUY/MT6dWrYfRJtMIZhewSyAaOAEnZiOYdKC5hW7nzKaNaeEj9Xc79guQUPnpH/sSDAwJWMaxZKMWFH2EdfRmcanHe4FeTTpiYwLe9JTFY4FA0syZ7K9ulhZ9rEx8h+uZC1YgpDcVZrJDTDdE8qUj4UWHAB7dbHtlOQlK9dQXH3bsxS1oQUHwZSMhg9T7zU1x+n6YfnGg9my/WVowbUAydwZb99ziFgzIRZy6DrYQ8EAQtG41c8ITy7QghWjBStGC1ZMqIIxxW7vmYQi2L9MXRFTglGn4zWWmWJC1RIWTDDKYGwahNOj8YqYEoyV6Cxq+Zsf0LSCubx/B3N1UQDBkNsgg5LP60erP/yCRk14mLeH2bNxS8wIxjh0w+60jOVacecDz3KZNLGk9EzBLBJyWebaz9aL7Yhrhk42HiT3P7cqYkkw1i9MvOcp8b4VhuR2lNx6wEnBz+OBcV9rSm7ehz75vFxsQ2CNb1rX68Jf4+uGmKoiMP3vNw+ImDBllni4/FDlL+J1wewFFJ/YidZ+fipz123YSs1a8fGQvbqKCCAYoGFjybdwfWqPaQUv0e4fjH8JNr9kFa0oWyt+R6wr30opLbPrXi6IOcHAlDzaT3JNTY34if/vY8VXG76LnFwQrYKxyj2gYBBAsj2MzI1AtWAnugR3ptJVa4ScX38/HFwwsKqL8WdKRp0b0cy1iCrBLDOj3410NXelBuSMp/jmlxkSZftamJLtDd+68i2UEokGTUZUCYYM3G3FpxtyQl00aEqeMOVJ+vSLDZSCRSvRIBdElWA3QDKGSTHm4GTCVRVnjWAAyViGKnsvUpxVgqMRLVgxWrBitGDFaMGK0YIVowUrRgtWjBasGC1YMU2zjviEZY0isn78D43o8OjRWGtOAAAAAElFTkSuQmCC;" parent="1" vertex="1">
          <mxGeometry x="876" y="424.5" width="50" height="50" as="geometry" />
        </mxCell>
        <mxCell id="fl8bqC6-7Vxig2I5YfBN-357" value="2" style="ellipse;whiteSpace=wrap;html=1;aspect=fixed;fontColor=#FFFFFF;fontSize=8;strokeColor=#98A2AE;fontFamily=Manrope;fontSource=https://fonts.googleapis.com/css?family=Manrope;fillColor=#BEC8D2;strokeWidth=1;" parent="1" vertex="1">
          <mxGeometry x="871" y="439" width="10" height="10" as="geometry" />
        </mxCell>
        <mxCell id="fl8bqC6-7Vxig2I5YfBN-358" value="" style="shape=image;verticalLabelPosition=bottom;labelBackgroundColor=default;verticalAlign=top;aspect=fixed;imageAspect=0;image=data:image/png,iVBORw0KGgoAAAANSUhEUgAAAFgAAABYCAYAAABxlTA0AAAAAXNSR0IArs4c6QAAAARnQU1BAACxjwv8YQUAAAAJcEhZcwAAFxEAABcRAcom8z8AAAikSURBVHhe7ZwJbBRVGMe3pUBrASkUlVMpV6EUQSlCCqhEjbYiIQEUETFyVEAr3hDwquCFVE2EYoTWCBTk8KgmiBfGqDEoRbkE5JByWW9UtJTC5/d/MwPD8na7OzOvu4vvS35pd3bezPS337735r039flSskijiKZZf2nBKtGCFaMFK0YLVowWrBgtWDFasGK0YMVowYrRghUTlYIbX8IX1lv+XqwRVYKb9SFfYiYlpPYlX1IP+T6xRtQIhlxfF2rf4wbasHE7jc57lF+nyfeVgYyPS+cyncWHJI4n26+uiQrBpty0jFzavfcAIU6cOEE33jY1NMnnXkoJLfrSkFH308hx0ykzeyT5knvK961rIi7YytxuOSz3oJBrxQlm+JiHapfcqCc1aXcFVR2tFuUK5y7hMh3l+9Y1ERV8WuaeLtcKSB5Rm2QW3Ljt5VT582+izKw5xbx/J/m+dU3EBFtyOXP3VBwSYhBHzSw8Wm38tCKoZC3YjwDVwosvv04LFr0tft+6fQ/d9eBs8TsCdXLA6kILtgG5cWa1UHFK7qLlq1lKGyoqXiVe7913iHz1utJtEx8TrxGoLqQNnxZsg7tQPfuNoH0HK4UMxOIV75GvQQZLuYhKSt8V2yr2/0gNL8jmbe1ofP5Msc2K2yc/Tr6G3U8dUwu2kdCVcoffLUQgFiNzIfeci1lKOhUveUdsh+DElv2N7hZnrF3yHPQSErrxxZt3e1qwDVH/duL+6gx6lbPVl8RiIdesl88Q3KiXIdLXge6Z/jy9ULRUVB3o+548phYsoSHfbTXgrznGHSAX2wIJxnuQjP2R7Xa5QAuW0BT4DegEEyzK8P7+ZYAWHCK1CQ6EFhwiWrBiIi0YjafV4Mred4IWbMLnzhkxhdp1v150JT2T/L8XzI1mHN/8jJ1cIMpu2rqTUtsMNLLZC8laMAvmu8LSVe+LsojyjdupuVeSdRXBNO5F8Uk9xC27FetZsshkt9WFFsxAIBo3vomxSy7fZEp2k8lasEkzBrftfLfon8muqgvHgnGyZL4gliImGj3h/JPDlW4Ez5hZxMdK9Tt2qFzItKEX5y+j48ePi+OJ6qKtQ8mOBfMnnX3tOCopfYezrswTFrLcHbsqxB/lRvD6b7fR3KKl4sMKm5I36CUuO2/hSvrn3ypxPAQavgsuGmRUJbJrCIRjwb6ONPn+Z8zTex8/saxwBDdhwX/+fcQsrSY+W7eREs7pceZgUzAcC45Pp+FjptL+A5Ui27xkHx/zy683GQPu3MJLz2+H90luPZDLbKadu/fR9/wtcAyX37FzL33DDVx19TFTLdERzubcYfkUl5QJafLrkOFYMPcf66VeRkmt+otM85IkRsiVnTcI9VL7ivURWBnkCC5bD3UsN5AYe64+Zgg+8k8VDcrN4+0dpOcNimPB4NzexldYBRgnlp0zGE24DMo5AWXF7MmFNOm+p4VYBORemTPemVzgSvDZBOpVXxrlP/ScqZZEIzcod4JzuUCJ4EAD49EKrpUl2uUa1YJLucBzwWgAMOPrPx0UrWAsIjGTpj8xz1RrNGhX5nggF3gqWGRCGk3i7hsWkPgSuUuDuk22b7RgCn7ltbeEXKNaMBs03N3JyoSDZ4JNuWPueFRcKGLB4jKKwyQl3pOViRaQBPytw6LBwSPv9SZzLTwRbModnfewqdaIcXcWGNVFOP3GSIBMbcKNHG6Fcb1eVmuuBZtyb817xNRqRMhre6MJFd80V4ItubZqARGTclXhWLAkc7H0dOjN9/H2tkanvZEb+GZDdt5giJsU2bE8wGl2OxJsyrU3aFVV1TQ2f6aYfsHIlluSMQYrO3cA4rgebcRlZMfyAtxKO5IctmA+CaZX8qbMMtUagYGRXXv2U+VPv4phQ7fgQRgxHhFKJnOGQe6Wbbulx/KCy9F1QyMoO38wwhbMNw+JKb1py/Y9plo1gQ8KAz+hCkaW/XH4L7O09zH4JnTfusjPHwxHVQRncOsOV9Fmzhgr0EF/oaiUZheWUCH/LJzngMJXafN3u8TxMGwZrmBkGgID7oW4Dtk5HNIla5izZ/ccCUY/MT6dWrYfRJtMIZhewSyAaOAEnZiOYdKC5hW7nzKaNaeEj9Xc79guQUPnpH/sSDAwJWMaxZKMWFH2EdfRmcanHe4FeTTpiYwLe9JTFY4FA0syZ7K9ulhZ9rEx8h+uZC1YgpDcVZrJDTDdE8qUj4UWHAB7dbHtlOQlK9dQXH3bsxS1oQUHwZSMhg9T7zU1x+n6YfnGg9my/WVowbUAydwZb99ziFgzIRZy6DrYQ8EAQtG41c8ITy7QghWjBStGC1ZMqIIxxW7vmYQi2L9MXRFTglGn4zWWmWJC1RIWTDDKYGwahNOj8YqYEoyV6Cxq+Zsf0LSCubx/B3N1UQDBkNsgg5LP60erP/yCRk14mLeH2bNxS8wIxjh0w+60jOVacecDz3KZNLGk9EzBLBJyWebaz9aL7Yhrhk42HiT3P7cqYkkw1i9MvOcp8b4VhuR2lNx6wEnBz+OBcV9rSm7ehz75vFxsQ2CNb1rX68Jf4+uGmKoiMP3vNw+ImDBllni4/FDlL+J1wewFFJ/YidZ+fipz123YSs1a8fGQvbqKCCAYoGFjybdwfWqPaQUv0e4fjH8JNr9kFa0oWyt+R6wr30opLbPrXi6IOcHAlDzaT3JNTY34if/vY8VXG76LnFwQrYKxyj2gYBBAsj2MzI1AtWAnugR3ptJVa4ScX38/HFwwsKqL8WdKRp0b0cy1iCrBLDOj3410NXelBuSMp/jmlxkSZftamJLtDd+68i2UEokGTUZUCYYM3G3FpxtyQl00aEqeMOVJ+vSLDZSCRSvRIBdElWA3QDKGSTHm4GTCVRVnjWAAyViGKnsvUpxVgqMRLVgxWrBitGDFaMGK0YIVowUrRgtWjBasGC1YMU2zjviEZY0isn78D43o8OjRWGtOAAAAAElFTkSuQmCC;" parent="1" vertex="1">
          <mxGeometry x="751" y="313.58" width="50" height="50" as="geometry" />
        </mxCell>
        <mxCell id="fl8bqC6-7Vxig2I5YfBN-359" value="1" style="ellipse;whiteSpace=wrap;html=1;aspect=fixed;fontColor=#FFFFFF;fontSize=8;strokeColor=#98A2AE;fontFamily=Manrope;fontSource=https://fonts.googleapis.com/css?family=Manrope;fillColor=#BEC8D2;strokeWidth=1;" parent="1" vertex="1">
          <mxGeometry x="794" y="273.05" width="10" height="10" as="geometry" />
        </mxCell>
        <mxCell id="fl8bqC6-7Vxig2I5YfBN-360" value="2" style="ellipse;whiteSpace=wrap;html=1;aspect=fixed;fontColor=#FFFFFF;fontSize=8;strokeColor=#98A2AE;fontFamily=Manrope;fontSource=https://fonts.googleapis.com/css?family=Manrope;fillColor=#BEC8D2;strokeWidth=1;" parent="1" vertex="1">
          <mxGeometry x="793" y="394" width="10" height="10" as="geometry" />
        </mxCell>
        <mxCell id="fl8bqC6-7Vxig2I5YfBN-361" value="&lt;font color=&quot;#1a1a1a&quot;&gt;SR-ISIS 0 - FLEX-Algo with TE-Metrics&lt;/font&gt;" style="rounded=1;whiteSpace=wrap;html=1;fontSize=8;strokeWidth=1;fillColor=#d5e8d4;strokeColor=#82b366;fontFamily=Manrope;fontSource=https%3A%2F%2Ffonts.googleapis.com%2Fcss%3Ffamily%3DManrope;spacing=0;" parent="1" vertex="1">
          <mxGeometry x="740" y="517.5" width="331" height="12" as="geometry" />
        </mxCell>
        <mxCell id="fl8bqC6-7Vxig2I5YfBN-362" value="" style="edgeStyle=none;rounded=0;orthogonalLoop=1;jettySize=auto;html=1;endArrow=blockThin;endFill=1;strokeColor=#98A2AE;fontSize=5;fontFamily=Manrope;fontSource=https%3A%2F%2Ffonts.googleapis.com%2Fcss%3Ffamily%3DManrope;labelBackgroundColor=#4D5766;fontColor=#FFFFFF;endSize=0;startSize=0;strokeWidth=2;exitX=-0.008;exitY=0.626;exitDx=0;exitDy=0;entryX=1;entryY=0.5;entryDx=0;entryDy=0;exitPerimeter=0;" parent="1" source="fl8bqC6-7Vxig2I5YfBN-346" target="fl8bqC6-7Vxig2I5YfBN-365" edge="1">
          <mxGeometry relative="1" as="geometry">
            <mxPoint x="881" y="457" as="sourcePoint" />
            <mxPoint x="837" y="259.5799999999999" as="targetPoint" />
          </mxGeometry>
        </mxCell>
        <mxCell id="fl8bqC6-7Vxig2I5YfBN-363" value="" style="edgeStyle=none;rounded=0;orthogonalLoop=1;jettySize=auto;html=1;exitX=1;exitY=1;exitDx=0;exitDy=0;endArrow=blockThin;endFill=1;strokeColor=#98A2AE;fontSize=5;fontFamily=Manrope;fontSource=https%3A%2F%2Ffonts.googleapis.com%2Fcss%3Ffamily%3DManrope;labelBackgroundColor=#4D5766;fontColor=#FFFFFF;endSize=0;startSize=0;strokeWidth=2;" parent="1" source="fl8bqC6-7Vxig2I5YfBN-360" target="fl8bqC6-7Vxig2I5YfBN-364" edge="1">
          <mxGeometry relative="1" as="geometry">
            <mxPoint x="808" y="374" as="sourcePoint" />
            <mxPoint x="842" y="425" as="targetPoint" />
          </mxGeometry>
        </mxCell>
        <mxCell id="fl8bqC6-7Vxig2I5YfBN-364" value="" style="ellipse;whiteSpace=wrap;html=1;aspect=fixed;fontColor=#FFFFFF;fontSize=6;fontFamily=Manrope;fontSource=https%3A%2F%2Ffonts.googleapis.com%2Fcss%3Ffamily%3DManrope;fillColor=#BEC8D2;strokeColor=none;" parent="1" vertex="1">
          <mxGeometry x="832" y="421" width="4" height="4" as="geometry" />
        </mxCell>
        <mxCell id="fl8bqC6-7Vxig2I5YfBN-365" value="" style="ellipse;whiteSpace=wrap;html=1;aspect=fixed;fontColor=#FFFFFF;fontSize=6;fontFamily=Manrope;fontSource=https%3A%2F%2Ffonts.googleapis.com%2Fcss%3Ffamily%3DManrope;fillColor=#BEC8D2;strokeColor=none;" parent="1" vertex="1">
          <mxGeometry x="833" y="259.58" width="4" height="4" as="geometry" />
        </mxCell>
        <mxCell id="fl8bqC6-7Vxig2I5YfBN-366" value="&lt;font style=&quot;font-size: 8px;&quot;&gt;PE1&lt;br&gt;10.0.0.3&lt;/font&gt;" style="text;html=1;align=center;verticalAlign=middle;resizable=0;points=[];autosize=1;fontSize=14;fontFamily=Manrope;fontStyle=0;fontColor=#FFFFFF;" parent="1" vertex="1">
          <mxGeometry x="746" y="239.05" width="44" height="46" as="geometry" />
        </mxCell>
        <mxCell id="fl8bqC6-7Vxig2I5YfBN-367" value="" style="edgeStyle=none;rounded=0;orthogonalLoop=1;jettySize=auto;html=1;endArrow=blockThin;endFill=1;strokeColor=#98A2AE;fontSize=5;fontFamily=Manrope;fontSource=https%3A%2F%2Ffonts.googleapis.com%2Fcss%3Ffamily%3DManrope;labelBackgroundColor=#4D5766;fontColor=#FFFFFF;endSize=0;startSize=0;strokeWidth=2;exitX=1;exitY=0.5;exitDx=0;exitDy=0;entryX=0;entryY=1;entryDx=0;entryDy=0;" parent="1" source="fl8bqC6-7Vxig2I5YfBN-355" target="fl8bqC6-7Vxig2I5YfBN-368" edge="1">
          <mxGeometry relative="1" as="geometry">
            <mxPoint x="936" y="448" as="sourcePoint" />
            <mxPoint x="979" y="438" as="targetPoint" />
          </mxGeometry>
        </mxCell>
        <mxCell id="fl8bqC6-7Vxig2I5YfBN-368" value="" style="ellipse;whiteSpace=wrap;html=1;aspect=fixed;fontColor=#FFFFFF;fontSize=6;fontFamily=Manrope;fontSource=https%3A%2F%2Ffonts.googleapis.com%2Fcss%3Ffamily%3DManrope;fillColor=#BEC8D2;strokeColor=none;" parent="1" vertex="1">
          <mxGeometry x="970" y="422.5" width="4" height="4" as="geometry" />
        </mxCell>
        <mxCell id="fl8bqC6-7Vxig2I5YfBN-369" value="" style="ellipse;whiteSpace=wrap;html=1;aspect=fixed;fontColor=#FFFFFF;fontSize=6;fontFamily=Manrope;fontSource=https%3A%2F%2Ffonts.googleapis.com%2Fcss%3Ffamily%3DManrope;fillColor=#BEC8D2;strokeColor=none;" parent="1" vertex="1">
          <mxGeometry x="970" y="259.5" width="4" height="4" as="geometry" />
        </mxCell>
        <mxCell id="fl8bqC6-7Vxig2I5YfBN-370" value="&lt;font color=&quot;#1a1a1a&quot;&gt;TE-Metric 50&lt;/font&gt;" style="rounded=1;whiteSpace=wrap;html=1;fontSize=8;strokeWidth=1;fillColor=#d5e8d4;strokeColor=#82b366;fontFamily=Manrope;fontSource=https%3A%2F%2Ffonts.googleapis.com%2Fcss%3Ffamily%3DManrope;spacing=0;" parent="1" vertex="1">
          <mxGeometry x="832" y="401" width="37" height="18.27" as="geometry" />
        </mxCell>
        <mxCell id="fl8bqC6-7Vxig2I5YfBN-372" value="&lt;font color=&quot;#1a1a1a&quot;&gt;TE-Metric 500&lt;/font&gt;" style="rounded=1;whiteSpace=wrap;html=1;fontSize=8;strokeWidth=1;fillColor=#FF6666;strokeColor=#FF6666;fontFamily=Manrope;fontSource=https%3A%2F%2Ffonts.googleapis.com%2Fcss%3Ffamily%3DManrope;spacing=0;" parent="1" vertex="1">
          <mxGeometry x="836" y="266.78" width="37" height="18.27" as="geometry" />
        </mxCell>
        <mxCell id="fl8bqC6-7Vxig2I5YfBN-375" value="&lt;font color=&quot;#1a1a1a&quot;&gt;TE-Metric 500&lt;/font&gt;" style="rounded=1;whiteSpace=wrap;html=1;fontSize=8;strokeWidth=1;fillColor=#FF6666;strokeColor=#FF6666;fontFamily=Manrope;fontSource=https%3A%2F%2Ffonts.googleapis.com%2Fcss%3Ffamily%3DManrope;spacing=0;" parent="1" vertex="1">
          <mxGeometry x="944" y="396.22999999999996" width="37" height="18.27" as="geometry" />
        </mxCell>
        <mxCell id="fl8bqC6-7Vxig2I5YfBN-377" value="&lt;font color=&quot;#1a1a1a&quot;&gt;TE-Metric 50&lt;/font&gt;" style="rounded=1;whiteSpace=wrap;html=1;fontSize=8;strokeWidth=1;fillColor=#d5e8d4;strokeColor=#82b366;fontFamily=Manrope;fontSource=https%3A%2F%2Ffonts.googleapis.com%2Fcss%3Ffamily%3DManrope;spacing=0;" parent="1" vertex="1">
          <mxGeometry x="907" y="337" width="37" height="18.27" as="geometry" />
        </mxCell>
        <mxCell id="fl8bqC6-7Vxig2I5YfBN-379" value="&lt;font color=&quot;#1a1a1a&quot;&gt;TE-Metric 50&lt;/font&gt;" style="rounded=1;whiteSpace=wrap;html=1;fontSize=8;strokeWidth=1;fillColor=#d5e8d4;strokeColor=#82b366;fontFamily=Manrope;fontSource=https%3A%2F%2Ffonts.googleapis.com%2Fcss%3Ffamily%3DManrope;spacing=0;" parent="1" vertex="1">
          <mxGeometry x="937" y="270.73" width="37" height="18.27" as="geometry" />
        </mxCell>
        <mxCell id="fl8bqC6-7Vxig2I5YfBN-381" value="" style="curved=1;endArrow=classic;html=1;rounded=0;strokeColor=#00FF00;entryX=0.767;entryY=0.093;entryDx=0;entryDy=0;entryPerimeter=0;exitX=0.5;exitY=0.113;exitDx=0;exitDy=0;exitPerimeter=0;" parent="1" source="9zTi3nsKfj2Z9hqAuiEz-343" target="9zTi3nsKfj2Z9hqAuiEz-359" edge="1">
          <mxGeometry width="50" height="50" relative="1" as="geometry">
            <mxPoint x="88" y="305" as="sourcePoint" />
            <mxPoint x="282" y="265" as="targetPoint" />
            <Array as="points">
              <mxPoint x="116" y="241" />
              <mxPoint x="181" y="221" />
              <mxPoint x="241" y="235" />
            </Array>
          </mxGeometry>
        </mxCell>
        <mxCell id="fl8bqC6-7Vxig2I5YfBN-382" value="" style="curved=1;endArrow=classic;html=1;rounded=0;strokeColor=#00FF00;exitX=-0.007;exitY=0.823;exitDx=0;exitDy=0;exitPerimeter=0;entryX=0.867;entryY=0.948;entryDx=0;entryDy=0;entryPerimeter=0;" parent="1" source="fl8bqC6-7Vxig2I5YfBN-306" target="fl8bqC6-7Vxig2I5YfBN-292" edge="1">
          <mxGeometry width="50" height="50" relative="1" as="geometry">
            <mxPoint x="424" y="402" as="sourcePoint" />
            <mxPoint x="679" y="402" as="targetPoint" />
            <Array as="points">
              <mxPoint x="483" y="465" />
              <mxPoint x="595" y="473" />
            </Array>
          </mxGeometry>
        </mxCell>
        <mxCell id="fl8bqC6-7Vxig2I5YfBN-384" value="" style="curved=1;endArrow=classic;html=1;rounded=0;strokeColor=#00FF00;exitX=-0.007;exitY=0.823;exitDx=0;exitDy=0;exitPerimeter=0;entryX=0.75;entryY=0.156;entryDx=0;entryDy=0;entryPerimeter=0;" parent="1" target="fl8bqC6-7Vxig2I5YfBN-334" edge="1">
          <mxGeometry width="50" height="50" relative="1" as="geometry">
            <mxPoint x="782" y="376" as="sourcePoint" />
            <mxPoint x="1069" y="379" as="targetPoint" />
            <Array as="points">
              <mxPoint x="889" y="539" />
              <mxPoint x="889" y="323" />
              <mxPoint x="891" y="248" />
              <mxPoint x="909" y="226" />
            </Array>
          </mxGeometry>
        </mxCell>
        <mxCell id="fl8bqC6-7Vxig2I5YfBN-513" value="&lt;font style=&quot;font-size: 8px;&quot;&gt;P3&lt;br&gt;10.0.0.3&lt;/font&gt;" style="text;html=1;align=center;verticalAlign=middle;resizable=0;points=[];autosize=1;fontSize=14;fontFamily=Manrope;fontStyle=0;fontColor=#FFFFFF;" parent="1" vertex="1">
          <mxGeometry x="516" y="168" width="44" height="46" as="geometry" />
        </mxCell>
        <mxCell id="fl8bqC6-7Vxig2I5YfBN-514" value="&lt;font style=&quot;font-size: 8px;&quot;&gt;P3&lt;br&gt;10.0.0.3&lt;/font&gt;" style="text;html=1;align=center;verticalAlign=middle;resizable=0;points=[];autosize=1;fontSize=14;fontFamily=Manrope;fontStyle=0;fontColor=#FFFFFF;" parent="1" vertex="1">
          <mxGeometry x="876" y="168" width="44" height="46" as="geometry" />
        </mxCell>
      </root>
    </mxGraphModel>
  </diagram>
</mxfile>
